<svg width="1920.000000" height="1573.000000" viewBox="0 0 1920 1573" fill="none" xmlns="http://www.w3.org/2000/svg" xmlns:xlink="http://www.w3.org/1999/xlink">
	<desc>
			Created with Pixso.
	</desc>
	<defs>
		<clipPath id="clip609_11327">
			<rect width="1920.000000" height="1573.000000" fill="white" fill-opacity="0"/>
		</clipPath>
		<linearGradient x1="676.006775" y1="526.086731" x2="905.520142" y2="660.898682" id="paint_linear_607_9818_0" gradientUnits="userSpaceOnUse">
			<stop stop-color="#3300FF"/>
			<stop offset="1.000000" stop-color="#FF06F5"/>
		</linearGradient>
		<linearGradient x1="698.777893" y1="539.839722" x2="920.939270" y2="679.794800" id="paint_linear_607_9819_0" gradientUnits="userSpaceOnUse">
			<stop stop-color="#3300FF"/>
			<stop offset="1.000000" stop-color="#FF06F5"/>
		</linearGradient>
		<linearGradient x1="720.682007" y1="554.140381" x2="935.220825" y2="699.068115" id="paint_linear_607_9820_0" gradientUnits="userSpaceOnUse">
			<stop stop-color="#3300FF"/>
			<stop offset="1.000000" stop-color="#FF06F5"/>
		</linearGradient>
		<linearGradient x1="741.686768" y1="568.966125" x2="948.341553" y2="718.689941" id="paint_linear_607_9821_0" gradientUnits="userSpaceOnUse">
			<stop stop-color="#3300FF"/>
			<stop offset="1.000000" stop-color="#FF06F5"/>
		</linearGradient>
		<linearGradient x1="761.772278" y1="584.295715" x2="960.291260" y2="738.633240" id="paint_linear_607_9822_0" gradientUnits="userSpaceOnUse">
			<stop stop-color="#3300FF"/>
			<stop offset="1.000000" stop-color="#FF06F5"/>
		</linearGradient>
		<linearGradient x1="780.910095" y1="600.113220" x2="971.051392" y2="758.876343" id="paint_linear_607_9823_0" gradientUnits="userSpaceOnUse">
			<stop stop-color="#3300FF"/>
			<stop offset="1.000000" stop-color="#FF06F5"/>
		</linearGradient>
		<linearGradient x1="799.070923" y1="616.392334" x2="980.603027" y2="779.387634" id="paint_linear_607_9824_0" gradientUnits="userSpaceOnUse">
			<stop stop-color="#3300FF"/>
			<stop offset="1.000000" stop-color="#FF06F5"/>
		</linearGradient>
		<linearGradient x1="816.228699" y1="633.110840" x2="988.930237" y2="800.139771" id="paint_linear_607_9825_0" gradientUnits="userSpaceOnUse">
			<stop stop-color="#3300FF"/>
			<stop offset="1.000000" stop-color="#FF06F5"/>
		</linearGradient>
		<linearGradient x1="832.368469" y1="650.247375" x2="996.029114" y2="821.106384" id="paint_linear_607_9826_0" gradientUnits="userSpaceOnUse">
			<stop stop-color="#3300FF"/>
			<stop offset="1.000000" stop-color="#FF06F5"/>
		</linearGradient>
		<linearGradient x1="847.463928" y1="667.775879" x2="1001.884277" y2="842.256897" id="paint_linear_607_9827_0" gradientUnits="userSpaceOnUse">
			<stop stop-color="#3300FF"/>
			<stop offset="1.000000" stop-color="#FF06F5"/>
		</linearGradient>
		<linearGradient x1="861.495605" y1="685.676331" x2="1006.487549" y2="863.566711" id="paint_linear_607_9828_0" gradientUnits="userSpaceOnUse">
			<stop stop-color="#3300FF"/>
			<stop offset="1.000000" stop-color="#FF06F5"/>
		</linearGradient>
		<linearGradient x1="874.439758" y1="703.919434" x2="1009.826599" y2="885.002441" id="paint_linear_607_9829_0" gradientUnits="userSpaceOnUse">
			<stop stop-color="#3300FF"/>
			<stop offset="1.000000" stop-color="#FF06F5"/>
		</linearGradient>
		<linearGradient x1="886.286987" y1="722.484253" x2="1011.903809" y2="906.539246" id="paint_linear_607_9830_0" gradientUnits="userSpaceOnUse">
			<stop stop-color="#3300FF"/>
			<stop offset="1.000000" stop-color="#FF06F5"/>
		</linearGradient>
		<linearGradient x1="897.016479" y1="741.343567" x2="1012.710266" y2="928.146362" id="paint_linear_607_9831_0" gradientUnits="userSpaceOnUse">
			<stop stop-color="#3300FF"/>
			<stop offset="1.000000" stop-color="#FF06F5"/>
		</linearGradient>
		<linearGradient x1="906.613098" y1="760.472290" x2="1012.242798" y2="949.795288" id="paint_linear_607_9832_0" gradientUnits="userSpaceOnUse">
			<stop stop-color="#3300FF"/>
			<stop offset="1.000000" stop-color="#FF06F5"/>
		</linearGradient>
		<linearGradient x1="915.059753" y1="779.843811" x2="1010.496765" y2="971.456299" id="paint_linear_607_9833_0" gradientUnits="userSpaceOnUse">
			<stop stop-color="#3300FF"/>
			<stop offset="1.000000" stop-color="#FF06F5"/>
		</linearGradient>
		<linearGradient x1="922.351196" y1="799.433044" x2="1007.479248" y2="993.101562" id="paint_linear_607_9834_0" gradientUnits="userSpaceOnUse">
			<stop stop-color="#3300FF"/>
			<stop offset="1.000000" stop-color="#FF06F5"/>
		</linearGradient>
		<linearGradient x1="928.475220" y1="819.213806" x2="1003.190552" y2="1014.702515" id="paint_linear_607_9835_0" gradientUnits="userSpaceOnUse">
			<stop stop-color="#3300FF"/>
			<stop offset="1.000000" stop-color="#FF06F5"/>
		</linearGradient>
		<linearGradient x1="933.417908" y1="839.158569" x2="997.629456" y2="1036.229126" id="paint_linear_607_9836_0" gradientUnits="userSpaceOnUse">
			<stop stop-color="#3300FF"/>
			<stop offset="1.000000" stop-color="#FF06F5"/>
		</linearGradient>
		<linearGradient x1="937.169495" y1="859.237488" x2="990.799133" y2="1057.649902" id="paint_linear_607_9837_0" gradientUnits="userSpaceOnUse">
			<stop stop-color="#3300FF"/>
			<stop offset="1.000000" stop-color="#FF06F5"/>
		</linearGradient>
		<linearGradient x1="939.731445" y1="879.429932" x2="982.713745" y2="1078.942505" id="paint_linear_607_9838_0" gradientUnits="userSpaceOnUse">
			<stop stop-color="#3300FF"/>
			<stop offset="1.000000" stop-color="#FF06F5"/>
		</linearGradient>
		<linearGradient x1="941.094360" y1="899.702332" x2="973.377014" y2="1100.071899" id="paint_linear_607_9839_0" gradientUnits="userSpaceOnUse">
			<stop stop-color="#3300FF"/>
			<stop offset="1.000000" stop-color="#FF06F5"/>
		</linearGradient>
		<linearGradient x1="941.254517" y1="920.031128" x2="962.798157" y2="1121.013672" id="paint_linear_607_9840_0" gradientUnits="userSpaceOnUse">
			<stop stop-color="#3300FF"/>
			<stop offset="1.000000" stop-color="#FF06F5"/>
		</linearGradient>
		<linearGradient x1="940.206238" y1="940.387085" x2="950.984619" y2="1141.737671" id="paint_linear_607_9841_0" gradientUnits="userSpaceOnUse">
			<stop stop-color="#3300FF"/>
			<stop offset="1.000000" stop-color="#FF06F5"/>
		</linearGradient>
		<linearGradient x1="937.956055" y1="960.743591" x2="937.956055" y2="1162.216919" id="paint_linear_607_9842_0" gradientUnits="userSpaceOnUse">
			<stop stop-color="#3300FF"/>
			<stop offset="1.000000" stop-color="#FF06F5"/>
		</linearGradient>
	</defs>
	<g clip-path="url(#clip609_11327)">
		<g opacity="0.000000">
			<path d="M431.26 781.31C560.49 674.79 690.3 650.34 825.02 546.75C998.4 413.43 964.58 268.76 1177.6 162.67C1255.93 123.66 1381.3 -111.92 1397.13 81.53C1412.97 274.98 1308.02 146.09 1250.92 187.46C1193.81 228.83 1079.51 443.73 906.32 579.15C768.49 686.94 629.73 709.57 498.38 820.74C366.75 932.14 243.77 1140.34 243.77 1140.34L166.44 1094.92C34.6 984.68 298.24 890.95 431.26 781.31Z" stroke="url(#paint_linear_607_9818_0)" stroke-opacity="1.000000" stroke-width="1.000000"/>
		</g>
		<g opacity="0.041667">
			<path d="M440.52 789.34C575.38 685.83 706.42 664.34 846.6 563.88C1027.01 434.6 1000.94 289.24 1219.51 188.06C1299.87 150.86 1437.77 -81.73 1443.25 111.97C1448.73 305.66 1350.73 174.47 1291.44 214.51C1232.17 254.56 1106.43 466.72 926.11 598.12C782.59 702.7 642.72 722.16 505.5 830.27C367.99 938.61 233.95 1143.88 233.95 1143.88L159.1 1096.72C33.23 983.55 301.72 895.88 440.52 789.34Z" stroke="url(#paint_linear_607_9819_0)" stroke-opacity="1.000000" stroke-width="1.000000"/>
		</g>
		<g opacity="0.083333">
			<path d="M449.24 797.61C589.55 697.23 721.66 678.74 867.12 581.53C1054.34 456.43 1036.06 310.57 1259.92 214.43C1342.22 179.09 1492.48 -50.22 1487.59 143.48C1482.7 337.18 1391.79 203.83 1330.4 242.5C1269.02 281.18 1132.01 490.34 944.76 617.56C795.73 718.81 654.9 735.07 511.98 839.99C368.76 945.14 223.82 1147.23 223.82 1147.23L151.54 1098.4C31.8 982.43 304.82 900.92 449.24 797.61Z" stroke="url(#paint_linear_607_9820_0)" stroke-opacity="1.000000" stroke-width="1.000000"/>
		</g>
		<g opacity="0.125000">
			<path d="M457.38 806.11C602.98 708.98 736 693.51 886.57 599.68C1080.37 478.92 1069.91 332.72 1298.77 241.74C1382.91 208.29 1545.35 -17.46 1530.1 176.02C1514.85 369.49 1431.12 234.15 1367.71 271.4C1304.29 308.65 1156.17 514.57 962.23 637.45C807.88 735.24 666.27 748.29 517.82 849.89C369.06 951.71 213.4 1150.38 213.4 1150.38L143.77 1099.93C30.31 981.31 307.53 906.07 457.38 806.11Z" stroke="url(#paint_linear_607_9821_0)" stroke-opacity="1.000000" stroke-width="1.000000"/>
		</g>
		<g opacity="0.166667">
			<path d="M464.95 814.82C615.65 721.07 749.42 708.64 904.93 618.29C1105.06 502.01 1102.43 355.67 1336.02 269.95C1421.9 238.44 1596.31 16.53 1570.72 209.53C1545.13 402.54 1468.7 265.38 1403.33 301.16C1337.96 336.95 1178.92 539.37 978.52 657.76C819.03 751.98 676.8 761.79 523.01 859.96C368.9 958.33 202.7 1153.32 202.7 1153.32L135.82 1101.32C28.77 980.19 309.84 911.31 464.95 814.82Z" stroke="url(#paint_linear_607_9822_0)" stroke-opacity="1.000000" stroke-width="1.000000"/>
		</g>
		<g opacity="0.208333">
			<path d="M471.94 823.74C627.57 733.48 761.91 724.1 922.16 637.34C1128.4 525.69 1133.6 379.38 1371.62 299.04C1459.14 269.5 1645.32 51.69 1609.42 244C1573.52 436.3 1504.47 297.49 1437.22 331.76C1369.98 366.03 1200.19 564.71 993.59 678.47C829.17 769 686.5 775.57 527.55 870.17C368.26 964.97 191.74 1156.06 191.74 1156.06L127.68 1102.57C27.17 979.08 311.76 916.64 471.94 823.74Z" stroke="url(#paint_linear_607_9823_0)" stroke-opacity="1.000000" stroke-width="1.000000"/>
		</g>
		<g opacity="0.250000">
			<path d="M478.33 832.85C638.68 746.18 773.45 739.87 938.24 656.82C1150.32 549.93 1163.35 403.82 1405.53 328.95C1494.57 301.42 1692.29 87.98 1646.12 279.35C1599.96 470.73 1538.38 330.42 1469.34 363.15C1400.3 395.87 1220 590.56 1007.44 699.54C838.26 786.27 695.33 789.59 531.41 880.52C367.16 971.63 180.52 1158.6 180.52 1158.6L119.35 1103.68C25.52 977.97 313.27 922.05 478.33 832.85Z" stroke="url(#paint_linear_607_9824_0)" stroke-opacity="1.000000" stroke-width="1.000000"/>
		</g>
		<g opacity="0.291667">
			<path d="M484.1 842.13C649 759.17 784.02 755.93 953.15 676.68C1170.82 574.69 1191.66 428.97 1437.7 359.65C1528.16 334.16 1737.17 125.36 1680.8 315.56C1624.42 505.77 1570.38 364.15 1499.64 395.28C1428.89 426.41 1238.29 616.88 1020.02 720.95C846.31 803.78 703.28 803.84 534.6 890.98C365.57 978.3 169.04 1160.9 169.04 1160.9L110.86 1104.63C23.8 976.85 314.38 927.52 484.1 842.13Z" stroke="url(#paint_linear_607_9825_0)" stroke-opacity="1.000000" stroke-width="1.000000"/>
		</g>
		<g opacity="0.333333">
			<path d="M489.26 851.58C658.49 772.42 793.61 772.26 966.88 696.91C1189.88 599.93 1218.49 454.77 1468.09 391.1C1559.86 367.69 1779.91 163.77 1713.4 352.58C1646.88 541.38 1600.45 398.62 1528.08 428.12C1455.71 457.62 1255.04 643.63 1031.34 742.67C853.3 821.5 710.36 818.3 537.12 901.55C363.52 984.97 157.34 1162.98 157.34 1162.98L102.2 1105.42C22.04 975.74 315.07 933.05 489.26 851.58Z" stroke="url(#paint_linear_607_9826_0)" stroke-opacity="1.000000" stroke-width="1.000000"/>
		</g>
		<g opacity="0.375000">
			<path d="M493.79 861.17C667.16 785.92 802.2 788.83 979.4 717.47C1207.44 625.63 1243.81 481.21 1496.66 423.26C1589.62 401.95 1820.46 203.17 1743.88 390.35C1667.3 577.52 1628.54 433.79 1554.64 461.62C1480.73 489.46 1270.23 670.79 1041.37 764.68C859.22 839.4 716.54 832.95 538.95 912.2C360.99 991.62 145.42 1164.82 145.42 1164.82L93.39 1106.04C20.21 974.62 315.35 938.63 493.79 861.17Z" stroke="url(#paint_linear_607_9827_0)" stroke-opacity="1.000000" stroke-width="1.000000"/>
		</g>
		<g opacity="0.416667">
			<path d="M497.69 870.9C674.98 799.64 809.78 805.63 990.69 738.34C1223.51 651.75 1267.57 508.25 1523.38 456.09C1617.43 436.91 1858.75 243.51 1772.21 428.82C1685.67 614.14 1654.62 469.61 1579.27 495.75C1503.92 521.88 1283.84 698.31 1050.09 786.93C864.06 857.46 721.81 847.77 540.09 922.93C358 998.25 133.29 1166.44 133.29 1166.44L84.43 1106.51C18.33 973.5 315.22 944.25 497.69 870.9Z" stroke="url(#paint_linear_607_9828_0)" stroke-opacity="1.000000" stroke-width="1.000000"/>
		</g>
		<g opacity="0.458333">
			<path d="M500.95 880.75C681.94 813.57 816.34 822.62 1000.74 759.5C1238.05 678.26 1289.77 535.84 1548.2 489.54C1643.22 472.52 1894.74 284.72 1798.34 467.96C1701.94 651.19 1678.64 506.04 1601.94 530.45C1525.23 554.85 1295.85 726.16 1057.51 809.41C867.81 875.66 726.17 862.73 540.54 933.71C354.52 1004.84 120.95 1167.81 120.95 1167.81L75.34 1106.8C16.39 972.37 314.66 949.9 500.95 880.75Z" stroke="url(#paint_linear_607_9829_0)" stroke-opacity="1.000000" stroke-width="1.000000"/>
		</g>
		<g opacity="0.500000">
			<path d="M503.56 890.71C688.04 827.69 821.87 839.79 1009.54 780.9C1251.05 705.12 1310.35 563.97 1571.1 523.58C1666.97 508.73 1928.39 326.77 1822.25 507.7C1716.1 688.63 1700.58 543.04 1622.62 565.68C1544.66 588.32 1306.25 754.31 1063.6 832.07C870.48 893.97 729.61 877.83 540.3 944.53C350.59 1011.39 108.44 1168.93 108.44 1168.93L66.12 1106.93C14.4 971.24 313.69 955.57 503.56 890.71Z" stroke="url(#paint_linear_607_9830_0)" stroke-opacity="1.000000" stroke-width="1.000000"/>
		</g>
		<g opacity="0.541667">
			<path d="M505.52 900.75C693.26 841.97 826.37 857.11 1017.07 802.53C1262.49 732.29 1329.3 592.58 1592.06 558.15C1688.66 545.49 1959.66 369.6 1843.9 548C1728.13 726.4 1720.41 580.55 1641.29 601.4C1562.17 622.25 1315.02 782.71 1068.36 854.9C872.04 912.36 732.12 893.02 539.36 955.38C346.19 1017.87 95.76 1169.81 95.76 1169.81L56.78 1106.88C12.35 970.1 312.3 961.25 505.52 900.75Z" stroke="url(#paint_linear_607_9831_0)" stroke-opacity="1.000000" stroke-width="1.000000"/>
		</g>
		<g opacity="0.583333">
			<path d="M506.83 910.87C697.6 856.4 829.81 874.56 1023.32 824.36C1272.34 759.74 1346.6 621.64 1611.03 593.21C1708.26 582.76 1988.5 413.15 1863.26 588.8C1738.02 764.46 1738.11 618.52 1657.92 637.56C1577.73 656.6 1322.15 811.33 1071.77 877.86C872.51 930.82 733.71 908.31 537.72 966.24C341.33 1024.29 82.92 1170.44 82.92 1170.44L47.33 1106.66C10.25 968.94 310.49 966.93 506.83 910.87Z" stroke="url(#paint_linear_607_9832_0)" stroke-opacity="1.000000" stroke-width="1.000000"/>
		</g>
		<g opacity="0.625000">
			<path d="M507.48 921.05C701.04 870.95 832.2 892.11 1028.27 846.35C1280.61 787.44 1362.2 651.11 1628 628.72C1725.72 620.49 2014.87 457.36 1880.31 630.06C1745.75 802.76 1753.64 656.91 1672.48 674.11C1591.32 691.31 1327.62 840.13 1073.84 900.92C871.86 949.31 734.35 923.65 535.39 977.08C336.01 1030.63 69.94 1170.81 69.94 1170.81L37.78 1106.26C8.09 967.78 308.25 972.61 507.48 921.05Z" stroke="url(#paint_linear_607_9833_0)" stroke-opacity="1.000000" stroke-width="1.000000"/>
		</g>
		<g opacity="0.666667">
			<path d="M507.46 931.27C703.59 885.61 833.54 909.75 1031.93 868.47C1287.27 815.35 1376.11 680.96 1642.94 664.64C1741.04 658.63 2038.74 502.18 1895.02 671.71C1751.31 841.24 1767 695.66 1684.97 711.01C1602.94 726.35 1331.44 869.07 1074.56 924.06C870.11 967.81 734.06 939.04 532.36 987.91C330.23 1036.89 56.83 1170.93 56.83 1170.93L28.15 1105.68C5.88 966.61 305.6 978.26 507.46 931.27Z" stroke="url(#paint_linear_607_9834_0)" stroke-opacity="1.000000" stroke-width="1.000000"/>
		</g>
		<g opacity="0.708333">
			<path d="M506.78 941.53C705.23 900.36 833.81 927.44 1034.3 890.71C1292.31 843.43 1388.29 711.14 1655.83 700.9C1754.2 697.14 2060.08 547.56 1907.39 713.72C1754.69 879.87 1778.16 734.74 1695.36 748.2C1612.56 761.67 1333.59 898.13 1073.92 947.23C867.26 986.3 732.83 954.45 528.64 998.7C324.01 1043.04 43.61 1170.78 43.61 1170.78L18.43 1104.91C3.62 965.42 302.53 983.89 506.78 941.53Z" stroke="url(#paint_linear_607_9835_0)" stroke-opacity="1.000000" stroke-width="1.000000"/>
		</g>
		<g opacity="0.750000">
			<path d="M505.44 951.8C705.97 915.17 833.02 945.16 1035.36 913.02C1295.74 871.64 1398.74 741.62 1666.66 737.48C1765.17 735.96 2078.87 593.44 1917.38 756.01C1755.88 918.59 1787.11 774.08 1703.63 785.65C1620.16 797.23 1334.06 927.25 1071.93 970.4C863.3 1004.75 730.65 969.86 524.22 1009.43C317.35 1049.09 30.28 1170.36 30.28 1170.36L8.64 1103.96C1.3 964.22 299.04 989.49 505.44 951.8Z" stroke="url(#paint_linear_607_9836_0)" stroke-opacity="1.000000" stroke-width="1.000000"/>
		</g>
		<g opacity="0.791667">
			<path d="M503.43 962.06C705.79 930.03 831.17 962.89 1035.09 935.37C1297.54 899.95 1407.42 772.36 1675.41 774.32C1773.94 775.04 2095.07 639.74 1924.98 798.55C1754.89 957.35 1793.82 813.63 1709.78 823.3C1625.74 832.97 1332.86 956.39 1068.56 993.56C858.24 1023.14 727.54 985.24 519.11 1020.09C310.25 1055.01 16.86 1169.68 16.86 1169.68L-1.21 1102.82C-1.07 963 295.14 995.03 503.43 962.06Z" stroke="url(#paint_linear_607_9837_0)" stroke-opacity="1.000000" stroke-width="1.000000"/>
		</g>
		<g opacity="0.833333">
			<path d="M500.75 972.32C704.71 944.91 828.25 980.61 1033.52 957.75C1297.69 928.32 1414.35 803.31 1682.06 811.37C1780.49 814.33 2108.67 686.43 1930.19 841.26C1751.7 996.1 1798.3 853.36 1713.79 861.1C1629.29 868.85 1329.98 985.54 1063.87 1016.66C852.08 1041.43 723.49 1000.59 513.32 1030.67C302.72 1060.81 3.38 1168.73 3.38 1168.73L-11.1 1101.51C-3.49 961.77 290.83 1000.53 500.75 972.32Z" stroke="url(#paint_linear_607_9838_0)" stroke-opacity="1.000000" stroke-width="1.000000"/>
		</g>
		<g opacity="0.875000">
			<path d="M497.41 982.54C702.71 959.79 824.27 998.28 1030.64 980.11C1296.23 956.72 1419.49 834.43 1686.61 848.58C1784.83 853.78 2119.63 733.43 1932.99 884.11C1746.33 1034.79 1800.53 893.19 1715.66 899.01C1630.79 904.83 1325.43 1014.63 1057.81 1039.68C844.83 1059.61 718.5 1015.86 506.85 1041.14C294.76 1066.47 -10.17 1167.51 -10.17 1167.51L-21.04 1100C-5.96 960.52 286.11 1005.96 497.41 982.54Z" stroke="url(#paint_linear_607_9839_0)" stroke-opacity="1.000000" stroke-width="1.000000"/>
		</g>
		<g opacity="0.916667">
			<path d="M493.41 992.72C699.8 974.66 819.22 1015.89 1026.43 1002.43C1293.12 985.09 1422.85 865.69 1689.05 885.91C1786.93 893.35 2127.98 780.7 1933.38 927.03C1738.77 1073.37 1800.52 933.09 1715.39 936.97C1630.26 940.86 1319.21 1043.64 1050.41 1062.57C836.49 1077.65 712.58 1031.05 499.71 1051.5C286.4 1071.99 -23.75 1166.02 -23.75 1166.02L-31.01 1098.3C-8.47 959.25 280.98 1011.31 493.41 992.72Z" stroke="url(#paint_linear_607_9840_0)" stroke-opacity="1.000000" stroke-width="1.000000"/>
		</g>
		<g opacity="0.958333">
			<path d="M488.75 1002.84C695.98 989.48 813.12 1033.41 1020.93 1024.67C1288.38 1013.43 1424.42 897.05 1689.38 923.32C1786.79 932.97 2133.65 828.15 1931.35 969.97C1729.03 1111.79 1798.25 973 1712.96 974.94C1627.68 976.89 1311.31 1072.53 1041.67 1085.32C827.07 1095.52 705.73 1046.14 491.9 1061.72C277.62 1077.34 -37.37 1164.25 -37.37 1164.25L-41.01 1096.41C-11.04 957.96 275.45 1016.58 488.75 1002.84Z" stroke="url(#paint_linear_607_9841_0)" stroke-opacity="1.000000" stroke-width="1.000000"/>
		</g>
		<path d="M483.43 1012.88C691.25 1004.25 805.97 1050.81 1014.12 1046.81C1282.01 1041.67 1424.19 928.45 1687.58 960.74C1784.42 972.61 2136.69 875.75 1926.91 1012.88C1717.13 1150 1793.73 1012.88 1708.39 1012.88C1623.05 1012.88 1301.77 1101.25 1031.61 1107.91C816.59 1113.21 697.97 1061.09 483.43 1071.8C268.44 1082.53 -51 1162.22 -51 1162.22L-51 1094.32C-13.65 956.65 269.53 1021.75 483.43 1012.88Z" stroke="url(#paint_linear_607_9842_0)" stroke-opacity="1.000000" stroke-width="1.000000"/>
	</g>
</svg>
