<svg width="708.000000" height="708.000000" viewBox="0 0 708 708" fill="none" xmlns="http://www.w3.org/2000/svg" xmlns:xlink="http://www.w3.org/1999/xlink">
	<desc>
			Created with Pixso.
	</desc>
	<defs>
		<linearGradient x1="163.129074" y1="348.592865" x2="339.186218" y2="153.061584" id="paint_linear_735_1889_0" gradientUnits="userSpaceOnUse">
			<stop stop-color="#5E00FF"/>
			<stop offset="0.990000" stop-color="#FA00FF"/>
		</linearGradient>
		<linearGradient x1="173.793549" y1="337.321289" x2="369.324799" y2="161.264145" id="paint_linear_735_1890_0" gradientUnits="userSpaceOnUse">
			<stop stop-color="#5E00FF"/>
			<stop offset="0.990000" stop-color="#FA00FF"/>
		</linearGradient>
		<linearGradient x1="185.475784" y1="327.317902" x2="398.338928" y2="172.663788" id="paint_linear_735_1891_0" gradientUnits="userSpaceOnUse">
			<stop stop-color="#5E00FF"/>
			<stop offset="0.990000" stop-color="#FA00FF"/>
		</linearGradient>
		<linearGradient x1="198.037781" y1="318.682312" x2="425.900574" y2="187.125687" id="paint_linear_735_1892_0" gradientUnits="userSpaceOnUse">
			<stop stop-color="#5E00FF"/>
			<stop offset="0.990000" stop-color="#FA00FF"/>
		</linearGradient>
		<linearGradient x1="211.331711" y1="311.498932" x2="451.697632" y2="204.481110" id="paint_linear_735_1893_0" gradientUnits="userSpaceOnUse">
			<stop stop-color="#5E00FF"/>
			<stop offset="0.990000" stop-color="#FA00FF"/>
		</linearGradient>
		<linearGradient x1="225.201721" y1="305.836273" x2="475.437347" y2="224.529816" id="paint_linear_735_1894_0" gradientUnits="userSpaceOnUse">
			<stop stop-color="#5E00FF"/>
			<stop offset="0.990000" stop-color="#FA00FF"/>
		</linearGradient>
		<linearGradient x1="239.485703" y1="301.745300" x2="496.849396" y2="247.040985" id="paint_linear_735_1895_0" gradientUnits="userSpaceOnUse">
			<stop stop-color="#5E00FF"/>
			<stop offset="0.990000" stop-color="#FA00FF"/>
		</linearGradient>
		<linearGradient x1="254.016891" y1="299.262634" x2="515.688843" y2="271.759827" id="paint_linear_735_1896_0" gradientUnits="userSpaceOnUse">
			<stop stop-color="#5E00FF"/>
			<stop offset="0.990000" stop-color="#FA00FF"/>
		</linearGradient>
		<linearGradient x1="268.626160" y1="298.404297" x2="531.739441" y2="298.404297" id="paint_linear_735_1897_0" gradientUnits="userSpaceOnUse">
			<stop stop-color="#5E00FF"/>
			<stop offset="0.990000" stop-color="#FA00FF"/>
		</linearGradient>
		<linearGradient x1="283.143188" y1="299.169495" x2="544.815063" y2="326.672302" id="paint_linear_735_1898_0" gradientUnits="userSpaceOnUse">
			<stop stop-color="#5E00FF"/>
			<stop offset="0.990000" stop-color="#FA00FF"/>
		</linearGradient>
		<linearGradient x1="297.398712" y1="301.539795" x2="554.762390" y2="356.244141" id="paint_linear_735_1899_0" gradientUnits="userSpaceOnUse">
			<stop stop-color="#5E00FF"/>
			<stop offset="0.990000" stop-color="#FA00FF"/>
		</linearGradient>
		<linearGradient x1="311.226440" y1="305.479034" x2="561.462036" y2="386.785492" id="paint_linear_735_1900_0" gradientUnits="userSpaceOnUse">
			<stop stop-color="#5E00FF"/>
			<stop offset="0.990000" stop-color="#FA00FF"/>
		</linearGradient>
		<linearGradient x1="324.464600" y1="310.932953" x2="564.830505" y2="417.950775" id="paint_linear_735_1901_0" gradientUnits="userSpaceOnUse">
			<stop stop-color="#5E00FF"/>
			<stop offset="0.990000" stop-color="#FA00FF"/>
		</linearGradient>
		<linearGradient x1="336.958069" y1="317.834473" x2="564.820862" y2="449.391113" id="paint_linear_735_1902_0" gradientUnits="userSpaceOnUse">
			<stop stop-color="#5E00FF"/>
			<stop offset="0.990000" stop-color="#FA00FF"/>
		</linearGradient>
		<linearGradient x1="348.560120" y1="326.094025" x2="561.423279" y2="480.748138" id="paint_linear_735_1903_0" gradientUnits="userSpaceOnUse">
			<stop stop-color="#5E00FF"/>
			<stop offset="0.990000" stop-color="#FA00FF"/>
		</linearGradient>
		<linearGradient x1="359.132965" y1="335.613831" x2="554.664246" y2="511.670959" id="paint_linear_735_1904_0" gradientUnits="userSpaceOnUse">
			<stop stop-color="#5E00FF"/>
			<stop offset="0.990000" stop-color="#FA00FF"/>
		</linearGradient>
		<linearGradient x1="368.550964" y1="346.278412" x2="544.608093" y2="541.809692" id="paint_linear_735_1905_0" gradientUnits="userSpaceOnUse">
			<stop stop-color="#5E00FF"/>
			<stop offset="0.990000" stop-color="#FA00FF"/>
		</linearGradient>
		<linearGradient x1="376.700653" y1="357.960876" x2="531.354736" y2="570.824036" id="paint_linear_735_1906_0" gradientUnits="userSpaceOnUse">
			<stop stop-color="#5E00FF"/>
			<stop offset="0.990000" stop-color="#FA00FF"/>
		</linearGradient>
		<linearGradient x1="383.482483" y1="370.523010" x2="515.039124" y2="598.385803" id="paint_linear_735_1907_0" gradientUnits="userSpaceOnUse">
			<stop stop-color="#5E00FF"/>
			<stop offset="0.990000" stop-color="#FA00FF"/>
		</linearGradient>
		<linearGradient x1="388.812195" y1="383.816101" x2="495.830017" y2="624.182007" id="paint_linear_735_1908_0" gradientUnits="userSpaceOnUse">
			<stop stop-color="#5E00FF"/>
			<stop offset="0.990000" stop-color="#FA00FF"/>
		</linearGradient>
		<linearGradient x1="392.621216" y1="397.686218" x2="473.927704" y2="647.921875" id="paint_linear_735_1909_0" gradientUnits="userSpaceOnUse">
			<stop stop-color="#5E00FF"/>
			<stop offset="0.990000" stop-color="#FA00FF"/>
		</linearGradient>
		<linearGradient x1="394.857452" y1="411.970337" x2="449.561768" y2="669.333984" id="paint_linear_735_1910_0" gradientUnits="userSpaceOnUse">
			<stop stop-color="#5E00FF"/>
			<stop offset="0.990000" stop-color="#FA00FF"/>
		</linearGradient>
		<linearGradient x1="395.486511" y1="426.501740" x2="422.989319" y2="688.173706" id="paint_linear_735_1911_0" gradientUnits="userSpaceOnUse">
			<stop stop-color="#5E00FF"/>
			<stop offset="0.990000" stop-color="#FA00FF"/>
		</linearGradient>
		<linearGradient x1="394.491211" y1="441.111145" x2="394.491211" y2="704.224426" id="paint_linear_735_1912_0" gradientUnits="userSpaceOnUse">
			<stop stop-color="#5E00FF"/>
			<stop offset="0.990000" stop-color="#FA00FF"/>
		</linearGradient>
	</defs>
	<g opacity="0.000000">
		<path id="Vector 3" d="M314.46 401.83C247.46 485.62 63.2 269.45 40.81 195.97C18.42 122.49 177.72 128.41 268.07 117.77C358.41 107.13 407.54 285.08 337.36 272.15C267.18 259.22 346.57 361.66 314.46 401.83Z" stroke="url(#paint_linear_735_1889_0)" stroke-opacity="1.000000" stroke-width="1.000000"/>
	</g>
	<g opacity="0.043478">
		<path id="Vector 3" d="M318.73 406.08C243.34 482.42 82.69 248.17 68.1 172.75C53.51 97.33 211.32 119.87 302.28 118.73C393.24 117.6 423.51 299.7 355.06 279.51C286.61 259.32 354.86 369.49 318.73 406.08Z" stroke="url(#paint_linear_735_1890_0)" stroke-opacity="1.000000" stroke-width="1.000000"/>
	</g>
	<g opacity="0.086957">
		<path id="Vector 3" d="M322.43 410.85C239.47 478.89 104.19 229.13 97.56 152.6C90.94 76.07 245.53 114.99 336.11 123.36C426.69 131.73 437.75 316.01 371.79 288.77C305.83 261.54 362.19 378.24 322.43 410.85Z" stroke="url(#paint_linear_735_1891_0)" stroke-opacity="1.000000" stroke-width="1.000000"/>
	</g>
	<g opacity="0.130435">
		<path id="Vector 3" d="M325.51 416.07C235.89 475.07 127.46 212.54 128.87 135.73C130.28 58.93 279.96 113.79 369.17 131.59C458.38 149.39 450.12 333.81 387.36 299.82C324.61 265.84 368.46 387.8 325.51 416.07Z" stroke="url(#paint_linear_735_1892_0)" stroke-opacity="1.000000" stroke-width="1.000000"/>
	</g>
	<g opacity="0.173913">
		<path id="Vector 3" d="M327.92 421.68C232.63 470.98 152.23 198.56 161.66 122.32C171.1 46.08 314.22 116.29 401.08 143.32C487.94 170.34 460.45 352.89 401.59 312.53C342.73 272.18 373.6 398.05 327.92 421.68Z" stroke="url(#paint_linear_735_1893_0)" stroke-opacity="1.000000" stroke-width="1.000000"/>
	</g>
	<g opacity="0.217391">
		<path id="Vector 3" d="M329.64 427.6C229.72 466.68 178.23 187.34 195.58 112.5C212.93 37.67 347.93 122.46 431.49 158.41C515.05 194.37 468.63 373.04 414.31 326.75C359.99 280.47 377.53 408.88 329.64 427.6Z" stroke="url(#paint_linear_735_1894_0)" stroke-opacity="1.000000" stroke-width="1.000000"/>
	</g>
	<g opacity="0.260870">
		<path id="Vector 3" d="M330.62 433.76C227.16 462.18 205.16 178.99 230.23 106.38C255.31 33.77 380.71 132.2 460.05 176.69C539.4 221.18 474.55 394.03 425.37 342.31C376.19 290.6 380.21 420.14 330.62 433.76Z" stroke="url(#paint_linear_735_1895_0)" stroke-opacity="1.000000" stroke-width="1.000000"/>
	</g>
	<g opacity="0.304348">
		<path id="Vector 3" d="M330.85 440.08C224.99 457.53 232.71 173.59 265.24 104C297.77 34.41 412.19 145.41 486.45 197.95C560.71 250.49 478.15 415.61 434.64 359.04C391.13 302.47 381.59 431.72 330.85 440.08Z" stroke="url(#paint_linear_735_1896_0)" stroke-opacity="1.000000" stroke-width="1.000000"/>
	</g>
	<g opacity="0.347826">
		<path id="Vector 3" d="M330.32 446.49C223.22 452.77 260.57 171.19 300.2 105.38C339.82 39.57 442.01 161.92 510.37 221.94C578.73 281.96 479.37 437.54 442.01 376.74C404.66 315.93 381.66 443.47 330.32 446.49Z" stroke="url(#paint_linear_735_1897_0)" stroke-opacity="1.000000" stroke-width="1.000000"/>
	</g>
	<g opacity="0.391304">
		<path id="Vector 3" d="M329.02 452.89C221.85 447.94 288.43 171.81 334.72 110.51C381 49.2 469.85 181.56 531.56 248.4C593.27 315.23 478.19 459.57 447.39 395.2C416.6 330.82 380.39 455.26 329.02 452.89Z" stroke="url(#paint_linear_735_1898_0)" stroke-opacity="1.000000" stroke-width="1.000000"/>
	</g>
	<g opacity="0.434783">
		<path id="Vector 3" d="M326.96 459.21C220.89 443.09 315.97 175.43 368.41 119.3C420.85 63.17 495.37 204.09 549.76 277.01C604.15 349.93 474.61 481.45 450.71 414.21C426.81 346.97 377.8 466.94 326.96 459.21Z" stroke="url(#paint_linear_735_1899_0)" stroke-opacity="1.000000" stroke-width="1.000000"/>
	</g>
	<g opacity="0.478261">
		<path id="Vector 3" d="M324.14 465.38C220.34 438.26 342.87 182.01 400.9 131.66C458.92 81.32 518.3 229.26 564.77 307.46C611.23 385.67 468.66 502.93 451.92 433.56C435.18 364.18 373.89 478.38 324.14 465.38Z" stroke="url(#paint_linear_735_1900_0)" stroke-opacity="1.000000" stroke-width="1.000000"/>
	</g>
	<g opacity="0.521739">
		<path id="Vector 3" d="M320.59 471.31C220.19 433.48 368.84 191.44 431.81 147.44C494.78 103.44 538.37 256.78 576.41 339.41C614.45 422.04 460.39 523.76 451 453.02C441.6 382.27 368.72 489.44 320.59 471.31Z" stroke="url(#paint_linear_735_1901_0)" stroke-opacity="1.000000" stroke-width="1.000000"/>
	</g>
	<g opacity="0.565217">
		<path id="Vector 3" d="M316.34 476.93C220.45 428.81 393.58 203.64 460.81 166.46C528.03 129.28 555.35 286.33 584.54 372.49C613.74 458.65 449.89 543.7 447.95 472.37C446 401.03 362.31 499.99 316.34 476.93Z" stroke="url(#paint_linear_735_1902_0)" stroke-opacity="1.000000" stroke-width="1.000000"/>
	</g>
	<g opacity="0.608696">
		<path id="Vector 3" d="M311.43 482.16C221.09 424.29 416.81 218.44 487.55 188.49C558.29 158.54 569.05 317.6 589.08 406.33C609.1 495.07 437.27 562.53 442.79 491.38C448.31 420.23 354.73 509.9 311.43 482.16Z" stroke="url(#paint_linear_735_1903_0)" stroke-opacity="1.000000" stroke-width="1.000000"/>
	</g>
	<g opacity="0.652174">
		<path id="Vector 3" d="M305.89 486.94C222.09 419.94 438.26 235.69 511.75 213.3C585.23 190.9 579.3 350.21 589.94 440.55C600.59 530.9 422.64 580.03 435.57 509.85C448.49 439.66 346.06 519.06 305.89 486.94Z" stroke="url(#paint_linear_735_1904_0)" stroke-opacity="1.000000" stroke-width="1.000000"/>
	</g>
	<g opacity="0.695652">
		<path id="Vector 3" d="M299.78 491.21C223.45 415.82 457.69 255.17 533.11 240.58C608.53 226 585.99 383.81 587.13 474.77C588.27 565.73 406.16 595.99 426.35 527.55C446.54 459.1 336.37 527.35 299.78 491.21Z" stroke="url(#paint_linear_735_1905_0)" stroke-opacity="1.000000" stroke-width="1.000000"/>
	</g>
	<g opacity="0.739130">
		<path id="Vector 3" d="M293.16 494.91C225.12 411.96 474.88 276.67 551.41 270.05C627.94 263.42 589.02 418.01 580.65 508.6C572.28 599.18 388 610.24 415.24 544.28C442.47 478.31 325.77 534.68 293.16 494.91Z" stroke="url(#paint_linear_735_1906_0)" stroke-opacity="1.000000" stroke-width="1.000000"/>
	</g>
	<g opacity="0.782609">
		<path id="Vector 3" d="M286.08 497.99C227.09 408.38 489.62 299.94 566.42 301.35C643.23 302.76 588.36 452.44 570.57 541.65C552.77 630.86 368.35 622.6 402.33 559.85C436.31 497.09 314.36 540.95 286.08 497.99Z" stroke="url(#paint_linear_735_1907_0)" stroke-opacity="1.000000" stroke-width="1.000000"/>
	</g>
	<g opacity="0.826087">
		<path id="Vector 3" d="M278.62 500.41C229.32 405.12 501.74 324.72 577.98 334.15C654.22 343.58 584.01 486.7 556.98 573.56C529.96 660.43 347.41 632.93 387.77 574.07C428.12 515.22 302.25 546.08 278.62 500.41Z" stroke="url(#paint_linear_735_1908_0)" stroke-opacity="1.000000" stroke-width="1.000000"/>
	</g>
	<g opacity="0.869565">
		<path id="Vector 3" d="M270.84 502.12C231.77 402.2 511.11 350.72 585.94 368.06C660.78 385.41 575.99 520.41 540.04 603.97C504.08 687.53 325.41 641.11 371.7 586.79C417.98 532.48 289.57 550.02 270.84 502.12Z" stroke="url(#paint_linear_735_1909_0)" stroke-opacity="1.000000" stroke-width="1.000000"/>
	</g>
	<g opacity="0.913043">
		<path id="Vector 3" d="M262.83 503.1C234.42 399.65 517.61 377.64 590.22 402.72C662.83 427.8 564.4 553.19 519.9 632.54C475.41 711.88 302.57 647.04 354.28 597.85C405.99 548.67 276.45 552.69 262.83 503.1Z" stroke="url(#paint_linear_735_1910_0)" stroke-opacity="1.000000" stroke-width="1.000000"/>
	</g>
	<g opacity="0.956522">
		<path id="Vector 3" d="M254.66 503.34C237.21 397.47 521.15 405.19 590.74 437.72C660.33 470.25 549.33 584.67 496.79 658.93C444.25 733.19 279.13 650.63 335.7 607.13C392.27 563.62 263.02 554.08 254.66 503.34Z" stroke="url(#paint_linear_735_1911_0)" stroke-opacity="1.000000" stroke-width="1.000000"/>
	</g>
	<path id="Vector 3" d="M246.4 502.81C240.12 395.7 521.69 433.06 587.5 472.68C653.31 512.31 530.96 614.5 470.94 682.86C410.93 751.22 255.34 651.85 316.15 614.5C376.96 577.14 249.41 554.14 246.4 502.81Z" stroke="url(#paint_linear_735_1912_0)" stroke-opacity="1.000000" stroke-width="1.000000"/>
</svg>
