<svg width="647.000000" height="646.000000" viewBox="0 0 647 646" fill="none" xmlns="http://www.w3.org/2000/svg" xmlns:xlink="http://www.w3.org/1999/xlink">
	<desc>
			Created with Pixso.
	</desc>
	<defs>
		<linearGradient x1="175.603577" y1="250.667572" x2="212.982986" y2="199.219208" id="paint_linear_735_1914_0" gradientUnits="userSpaceOnUse">
			<stop stop-color="#5E00FF"/>
			<stop offset="0.990000" stop-color="#FA00FF"/>
		</linearGradient>
		<linearGradient x1="186.167908" y1="237.931778" x2="228.720383" y2="190.672470" id="paint_linear_735_1915_0" gradientUnits="userSpaceOnUse">
			<stop stop-color="#5E00FF"/>
			<stop offset="0.990000" stop-color="#FA00FF"/>
		</linearGradient>
		<linearGradient x1="197.969635" y1="226.331253" x2="245.228943" y2="183.778793" id="paint_linear_735_1916_0" gradientUnits="userSpaceOnUse">
			<stop stop-color="#5E00FF"/>
			<stop offset="0.990000" stop-color="#FA00FF"/>
		</linearGradient>
		<linearGradient x1="210.883591" y1="215.987045" x2="262.331970" y2="178.607635" id="paint_linear_735_1917_0" gradientUnits="userSpaceOnUse">
			<stop stop-color="#5E00FF"/>
			<stop offset="0.990000" stop-color="#FA00FF"/>
		</linearGradient>
		<linearGradient x1="224.772018" y1="207.010498" x2="279.845764" y2="175.213684" id="paint_linear_735_1918_0" gradientUnits="userSpaceOnUse">
			<stop stop-color="#5E00FF"/>
			<stop offset="0.990000" stop-color="#FA00FF"/>
		</linearGradient>
		<linearGradient x1="239.486908" y1="199.494171" x2="297.582611" y2="173.628296" id="paint_linear_735_1919_0" gradientUnits="userSpaceOnUse">
			<stop stop-color="#5E00FF"/>
			<stop offset="0.990000" stop-color="#FA00FF"/>
		</linearGradient>
		<linearGradient x1="254.871155" y1="193.518280" x2="315.352325" y2="173.866760" id="paint_linear_735_1920_0" gradientUnits="userSpaceOnUse">
			<stop stop-color="#5E00FF"/>
			<stop offset="0.990000" stop-color="#FA00FF"/>
		</linearGradient>
		<linearGradient x1="270.759796" y1="189.142456" x2="332.963776" y2="175.920593" id="paint_linear_735_1921_0" gradientUnits="userSpaceOnUse">
			<stop stop-color="#5E00FF"/>
			<stop offset="0.990000" stop-color="#FA00FF"/>
		</linearGradient>
		<linearGradient x1="286.983063" y1="186.411575" x2="350.228363" y2="179.764236" id="paint_linear_735_1922_0" gradientUnits="userSpaceOnUse">
			<stop stop-color="#5E00FF"/>
			<stop offset="0.990000" stop-color="#FA00FF"/>
		</linearGradient>
		<linearGradient x1="303.366882" y1="185.352631" x2="366.960541" y2="185.352631" id="paint_linear_735_1923_0" gradientUnits="userSpaceOnUse">
			<stop stop-color="#5E00FF"/>
			<stop offset="0.990000" stop-color="#FA00FF"/>
		</linearGradient>
		<linearGradient x1="319.735870" y1="185.971283" x2="382.981171" y2="192.618637" id="paint_linear_735_1924_0" gradientUnits="userSpaceOnUse">
			<stop stop-color="#5E00FF"/>
			<stop offset="0.990000" stop-color="#FA00FF"/>
		</linearGradient>
		<linearGradient x1="335.914734" y1="188.258728" x2="398.118713" y2="201.480621" id="paint_linear_735_1925_0" gradientUnits="userSpaceOnUse">
			<stop stop-color="#5E00FF"/>
			<stop offset="0.990000" stop-color="#FA00FF"/>
		</linearGradient>
		<linearGradient x1="351.729980" y1="192.184021" x2="412.211151" y2="211.835541" id="paint_linear_735_1926_0" gradientUnits="userSpaceOnUse">
			<stop stop-color="#5E00FF"/>
			<stop offset="0.990000" stop-color="#FA00FF"/>
		</linearGradient>
		<linearGradient x1="367.012482" y1="197.702148" x2="425.108185" y2="223.567993" id="paint_linear_735_1927_0" gradientUnits="userSpaceOnUse">
			<stop stop-color="#5E00FF"/>
			<stop offset="0.990000" stop-color="#FA00FF"/>
		</linearGradient>
		<linearGradient x1="381.598633" y1="204.746674" x2="436.672363" y2="236.543518" id="paint_linear_735_1928_0" gradientUnits="userSpaceOnUse">
			<stop stop-color="#5E00FF"/>
			<stop offset="0.990000" stop-color="#FA00FF"/>
		</linearGradient>
		<linearGradient x1="395.332672" y1="213.238480" x2="446.781036" y2="250.617905" id="paint_linear_735_1929_0" gradientUnits="userSpaceOnUse">
			<stop stop-color="#5E00FF"/>
			<stop offset="0.990000" stop-color="#FA00FF"/>
		</linearGradient>
		<linearGradient x1="408.067963" y1="223.078537" x2="455.327271" y2="265.630981" id="paint_linear_735_1930_0" gradientUnits="userSpaceOnUse">
			<stop stop-color="#5E00FF"/>
			<stop offset="0.990000" stop-color="#FA00FF"/>
		</linearGradient>
		<linearGradient x1="419.669128" y1="234.156158" x2="462.221588" y2="281.415466" id="paint_linear_735_1931_0" gradientUnits="userSpaceOnUse">
			<stop stop-color="#5E00FF"/>
			<stop offset="0.990000" stop-color="#FA00FF"/>
		</linearGradient>
		<linearGradient x1="430.012817" y1="246.346848" x2="467.392273" y2="297.795227" id="paint_linear_735_1932_0" gradientUnits="userSpaceOnUse">
			<stop stop-color="#5E00FF"/>
			<stop offset="0.990000" stop-color="#FA00FF"/>
		</linearGradient>
		<linearGradient x1="438.989868" y1="259.511169" x2="470.786713" y2="314.584900" id="paint_linear_735_1933_0" gradientUnits="userSpaceOnUse">
			<stop stop-color="#5E00FF"/>
			<stop offset="0.990000" stop-color="#FA00FF"/>
		</linearGradient>
		<linearGradient x1="446.505829" y1="273.502899" x2="472.371704" y2="331.598602" id="paint_linear_735_1934_0" gradientUnits="userSpaceOnUse">
			<stop stop-color="#5E00FF"/>
			<stop offset="0.990000" stop-color="#FA00FF"/>
		</linearGradient>
		<linearGradient x1="452.482208" y1="288.162903" x2="472.133728" y2="348.644073" id="paint_linear_735_1935_0" gradientUnits="userSpaceOnUse">
			<stop stop-color="#5E00FF"/>
			<stop offset="0.990000" stop-color="#FA00FF"/>
		</linearGradient>
		<linearGradient x1="456.857666" y1="303.328400" x2="470.079529" y2="365.532379" id="paint_linear_735_1936_0" gradientUnits="userSpaceOnUse">
			<stop stop-color="#5E00FF"/>
			<stop offset="0.990000" stop-color="#FA00FF"/>
		</linearGradient>
		<linearGradient x1="459.588074" y1="318.827423" x2="466.235413" y2="382.072723" id="paint_linear_735_1937_0" gradientUnits="userSpaceOnUse">
			<stop stop-color="#5E00FF"/>
			<stop offset="0.990000" stop-color="#FA00FF"/>
		</linearGradient>
		<linearGradient x1="460.647491" y1="334.488098" x2="460.647491" y2="398.081757" id="paint_linear_735_1938_0" gradientUnits="userSpaceOnUse">
			<stop stop-color="#5E00FF"/>
			<stop offset="0.990000" stop-color="#FA00FF"/>
		</linearGradient>
		<linearGradient x1="460.028503" y1="350.132965" x2="453.381165" y2="413.378265" id="paint_linear_735_1939_0" gradientUnits="userSpaceOnUse">
			<stop stop-color="#5E00FF"/>
			<stop offset="0.990000" stop-color="#FA00FF"/>
		</linearGradient>
		<linearGradient x1="457.741516" y1="365.588562" x2="444.519653" y2="427.792542" id="paint_linear_735_1940_0" gradientUnits="userSpaceOnUse">
			<stop stop-color="#5E00FF"/>
			<stop offset="0.990000" stop-color="#FA00FF"/>
		</linearGradient>
		<linearGradient x1="453.815857" y1="380.679688" x2="434.164337" y2="441.160858" id="paint_linear_735_1941_0" gradientUnits="userSpaceOnUse">
			<stop stop-color="#5E00FF"/>
			<stop offset="0.990000" stop-color="#FA00FF"/>
		</linearGradient>
		<linearGradient x1="448.298218" y1="395.237946" x2="422.432343" y2="453.333649" id="paint_linear_735_1942_0" gradientUnits="userSpaceOnUse">
			<stop stop-color="#5E00FF"/>
			<stop offset="0.990000" stop-color="#FA00FF"/>
		</linearGradient>
		<linearGradient x1="441.253326" y1="409.100952" x2="409.456482" y2="464.174683" id="paint_linear_735_1943_0" gradientUnits="userSpaceOnUse">
			<stop stop-color="#5E00FF"/>
			<stop offset="0.990000" stop-color="#FA00FF"/>
		</linearGradient>
		<linearGradient x1="432.762024" y1="422.110748" x2="395.382599" y2="473.559113" id="paint_linear_735_1944_0" gradientUnits="userSpaceOnUse">
			<stop stop-color="#5E00FF"/>
			<stop offset="0.990000" stop-color="#FA00FF"/>
		</linearGradient>
		<linearGradient x1="422.921600" y1="434.122894" x2="380.369141" y2="481.382202" id="paint_linear_735_1945_0" gradientUnits="userSpaceOnUse">
			<stop stop-color="#5E00FF"/>
			<stop offset="0.990000" stop-color="#FA00FF"/>
		</linearGradient>
		<linearGradient x1="411.843475" y1="444.999817" x2="364.584167" y2="487.552277" id="paint_linear_735_1946_0" gradientUnits="userSpaceOnUse">
			<stop stop-color="#5E00FF"/>
			<stop offset="0.990000" stop-color="#FA00FF"/>
		</linearGradient>
		<linearGradient x1="399.653381" y1="454.620361" x2="348.205017" y2="491.999817" id="paint_linear_735_1947_0" gradientUnits="userSpaceOnUse">
			<stop stop-color="#5E00FF"/>
			<stop offset="0.990000" stop-color="#FA00FF"/>
		</linearGradient>
		<linearGradient x1="386.488586" y1="462.873291" x2="331.414856" y2="494.670135" id="paint_linear_735_1948_0" gradientUnits="userSpaceOnUse">
			<stop stop-color="#5E00FF"/>
			<stop offset="0.990000" stop-color="#FA00FF"/>
		</linearGradient>
		<linearGradient x1="372.497345" y1="469.665009" x2="314.401642" y2="495.530884" id="paint_linear_735_1949_0" gradientUnits="userSpaceOnUse">
			<stop stop-color="#5E00FF"/>
			<stop offset="0.990000" stop-color="#FA00FF"/>
		</linearGradient>
		<linearGradient x1="357.836975" y1="474.918243" x2="297.355804" y2="494.569763" id="paint_linear_735_1950_0" gradientUnits="userSpaceOnUse">
			<stop stop-color="#5E00FF"/>
			<stop offset="0.990000" stop-color="#FA00FF"/>
		</linearGradient>
		<linearGradient x1="342.671967" y1="478.569458" x2="280.467987" y2="491.791321" id="paint_linear_735_1951_0" gradientUnits="userSpaceOnUse">
			<stop stop-color="#5E00FF"/>
			<stop offset="0.990000" stop-color="#FA00FF"/>
		</linearGradient>
		<linearGradient x1="327.172577" y1="480.576721" x2="263.927277" y2="487.224060" id="paint_linear_735_1952_0" gradientUnits="userSpaceOnUse">
			<stop stop-color="#5E00FF"/>
			<stop offset="0.990000" stop-color="#FA00FF"/>
		</linearGradient>
		<linearGradient x1="311.512390" y1="480.912018" x2="247.918732" y2="480.912018" id="paint_linear_735_1953_0" gradientUnits="userSpaceOnUse">
			<stop stop-color="#5E00FF"/>
			<stop offset="0.990000" stop-color="#FA00FF"/>
		</linearGradient>
		<linearGradient x1="295.867157" y1="479.569763" x2="232.621841" y2="472.922424" id="paint_linear_735_1954_0" gradientUnits="userSpaceOnUse">
			<stop stop-color="#5E00FF"/>
			<stop offset="0.990000" stop-color="#FA00FF"/>
		</linearGradient>
		<linearGradient x1="280.412048" y1="476.558655" x2="218.208054" y2="463.336792" id="paint_linear_735_1955_0" gradientUnits="userSpaceOnUse">
			<stop stop-color="#5E00FF"/>
			<stop offset="0.990000" stop-color="#FA00FF"/>
		</linearGradient>
		<linearGradient x1="265.320557" y1="471.909729" x2="204.839386" y2="452.258209" id="paint_linear_735_1956_0" gradientUnits="userSpaceOnUse">
			<stop stop-color="#5E00FF"/>
			<stop offset="0.990000" stop-color="#FA00FF"/>
		</linearGradient>
		<linearGradient x1="250.761826" y1="465.667969" x2="192.666122" y2="439.802094" id="paint_linear_735_1957_0" gradientUnits="userSpaceOnUse">
			<stop stop-color="#5E00FF"/>
			<stop offset="0.990000" stop-color="#FA00FF"/>
		</linearGradient>
		<linearGradient x1="236.899307" y1="457.899811" x2="181.825577" y2="426.102966" id="paint_linear_735_1958_0" gradientUnits="userSpaceOnUse">
			<stop stop-color="#5E00FF"/>
			<stop offset="0.990000" stop-color="#FA00FF"/>
		</linearGradient>
		<linearGradient x1="223.889130" y1="448.684387" x2="172.440765" y2="411.304962" id="paint_linear_735_1959_0" gradientUnits="userSpaceOnUse">
			<stop stop-color="#5E00FF"/>
			<stop offset="0.990000" stop-color="#FA00FF"/>
		</linearGradient>
		<linearGradient x1="211.877457" y1="438.119720" x2="164.618149" y2="395.567261" id="paint_linear_735_1960_0" gradientUnits="userSpaceOnUse">
			<stop stop-color="#5E00FF"/>
			<stop offset="0.990000" stop-color="#FA00FF"/>
		</linearGradient>
		<linearGradient x1="201.000198" y1="426.318451" x2="158.447739" y2="379.059143" id="paint_linear_735_1961_0" gradientUnits="userSpaceOnUse">
			<stop stop-color="#5E00FF"/>
			<stop offset="0.990000" stop-color="#FA00FF"/>
		</linearGradient>
		<linearGradient x1="191.380112" y1="413.404114" x2="154.000702" y2="361.955750" id="paint_linear_735_1962_0" gradientUnits="userSpaceOnUse">
			<stop stop-color="#5E00FF"/>
			<stop offset="0.990000" stop-color="#FA00FF"/>
		</linearGradient>
		<linearGradient x1="183.126862" y1="399.516174" x2="151.330017" y2="344.442444" id="paint_linear_735_1963_0" gradientUnits="userSpaceOnUse">
			<stop stop-color="#5E00FF"/>
			<stop offset="0.990000" stop-color="#FA00FF"/>
		</linearGradient>
		<linearGradient x1="176.334625" y1="384.800812" x2="150.468750" y2="326.705109" id="paint_linear_735_1964_0" gradientUnits="userSpaceOnUse">
			<stop stop-color="#5E00FF"/>
			<stop offset="0.990000" stop-color="#FA00FF"/>
		</linearGradient>
		<linearGradient x1="171.082001" y1="369.417175" x2="151.430481" y2="308.936005" id="paint_linear_735_1965_0" gradientUnits="userSpaceOnUse">
			<stop stop-color="#5E00FF"/>
			<stop offset="0.990000" stop-color="#FA00FF"/>
		</linearGradient>
		<linearGradient x1="167.430298" y1="353.528046" x2="154.208435" y2="291.324066" id="paint_linear_735_1966_0" gradientUnits="userSpaceOnUse">
			<stop stop-color="#5E00FF"/>
			<stop offset="0.990000" stop-color="#FA00FF"/>
		</linearGradient>
		<linearGradient x1="165.423538" y1="337.304413" x2="158.776199" y2="274.059113" id="paint_linear_735_1967_0" gradientUnits="userSpaceOnUse">
			<stop stop-color="#5E00FF"/>
			<stop offset="0.990000" stop-color="#FA00FF"/>
		</linearGradient>
		<linearGradient x1="165.087860" y1="320.921082" x2="165.087860" y2="257.327423" id="paint_linear_735_1968_0" gradientUnits="userSpaceOnUse">
			<stop stop-color="#5E00FF"/>
			<stop offset="0.990000" stop-color="#FA00FF"/>
		</linearGradient>
		<linearGradient x1="166.430634" y1="304.551605" x2="173.077988" y2="241.306290" id="paint_linear_735_1969_0" gradientUnits="userSpaceOnUse">
			<stop stop-color="#5E00FF"/>
			<stop offset="0.990000" stop-color="#FA00FF"/>
		</linearGradient>
		<linearGradient x1="169.441345" y1="288.373352" x2="182.663208" y2="226.169357" id="paint_linear_735_1970_0" gradientUnits="userSpaceOnUse">
			<stop stop-color="#5E00FF"/>
			<stop offset="0.990000" stop-color="#FA00FF"/>
		</linearGradient>
		<linearGradient x1="174.090759" y1="272.557617" x2="193.742279" y2="212.076447" id="paint_linear_735_1971_0" gradientUnits="userSpaceOnUse">
			<stop stop-color="#5E00FF"/>
			<stop offset="0.990000" stop-color="#FA00FF"/>
		</linearGradient>
		<linearGradient x1="180.332153" y1="257.275726" x2="206.197998" y2="199.180038" id="paint_linear_735_1972_0" gradientUnits="userSpaceOnUse">
			<stop stop-color="#5E00FF"/>
			<stop offset="0.990000" stop-color="#FA00FF"/>
		</linearGradient>
		<linearGradient x1="188.100800" y1="242.689102" x2="219.897644" y2="187.615372" id="paint_linear_735_1973_0" gradientUnits="userSpaceOnUse">
			<stop stop-color="#5E00FF"/>
			<stop offset="0.990000" stop-color="#FA00FF"/>
		</linearGradient>
		<linearGradient x1="197.315857" y1="228.955658" x2="234.695267" y2="177.507294" id="paint_linear_735_1974_0" gradientUnits="userSpaceOnUse">
			<stop stop-color="#5E00FF"/>
			<stop offset="0.990000" stop-color="#FA00FF"/>
		</linearGradient>
		<linearGradient x1="207.880066" y1="216.219864" x2="250.432541" y2="168.960556" id="paint_linear_735_1975_0" gradientUnits="userSpaceOnUse">
			<stop stop-color="#5E00FF"/>
			<stop offset="0.990000" stop-color="#FA00FF"/>
		</linearGradient>
		<linearGradient x1="219.681793" y1="204.618362" x2="266.941101" y2="162.065903" id="paint_linear_735_1976_0" gradientUnits="userSpaceOnUse">
			<stop stop-color="#5E00FF"/>
			<stop offset="0.990000" stop-color="#FA00FF"/>
		</linearGradient>
		<linearGradient x1="232.595749" y1="194.275131" x2="284.044128" y2="156.895721" id="paint_linear_735_1977_0" gradientUnits="userSpaceOnUse">
			<stop stop-color="#5E00FF"/>
			<stop offset="0.990000" stop-color="#FA00FF"/>
		</linearGradient>
		<linearGradient x1="246.484177" y1="185.297638" x2="301.557922" y2="153.500793" id="paint_linear_735_1978_0" gradientUnits="userSpaceOnUse">
			<stop stop-color="#5E00FF"/>
			<stop offset="0.990000" stop-color="#FA00FF"/>
		</linearGradient>
		<linearGradient x1="261.199188" y1="177.782257" x2="319.294891" y2="151.916382" id="paint_linear_735_1979_0" gradientUnits="userSpaceOnUse">
			<stop stop-color="#5E00FF"/>
			<stop offset="0.990000" stop-color="#FA00FF"/>
		</linearGradient>
		<linearGradient x1="276.583313" y1="171.805389" x2="337.064484" y2="152.153870" id="paint_linear_735_1980_0" gradientUnits="userSpaceOnUse">
			<stop stop-color="#5E00FF"/>
			<stop offset="0.990000" stop-color="#FA00FF"/>
		</linearGradient>
		<linearGradient x1="292.471954" y1="167.430542" x2="354.675934" y2="154.208679" id="paint_linear_735_1981_0" gradientUnits="userSpaceOnUse">
			<stop stop-color="#5E00FF"/>
			<stop offset="0.990000" stop-color="#FA00FF"/>
		</linearGradient>
		<linearGradient x1="308.695221" y1="164.699661" x2="371.940521" y2="158.052322" id="paint_linear_735_1982_0" gradientUnits="userSpaceOnUse">
			<stop stop-color="#5E00FF"/>
			<stop offset="0.990000" stop-color="#FA00FF"/>
		</linearGradient>
		<linearGradient x1="325.079041" y1="163.640717" x2="388.672699" y2="163.640717" id="paint_linear_735_1983_0" gradientUnits="userSpaceOnUse">
			<stop stop-color="#5E00FF"/>
			<stop offset="0.990000" stop-color="#FA00FF"/>
		</linearGradient>
		<linearGradient x1="341.448151" y1="164.259369" x2="404.693451" y2="170.906723" id="paint_linear_735_1984_0" gradientUnits="userSpaceOnUse">
			<stop stop-color="#5E00FF"/>
			<stop offset="0.990000" stop-color="#FA00FF"/>
		</linearGradient>
		<linearGradient x1="357.626892" y1="166.545837" x2="419.830872" y2="179.767700" id="paint_linear_735_1985_0" gradientUnits="userSpaceOnUse">
			<stop stop-color="#5E00FF"/>
			<stop offset="0.990000" stop-color="#FA00FF"/>
		</linearGradient>
		<linearGradient x1="373.442261" y1="170.472107" x2="433.923431" y2="190.123627" id="paint_linear_735_1986_0" gradientUnits="userSpaceOnUse">
			<stop stop-color="#5E00FF"/>
			<stop offset="0.990000" stop-color="#FA00FF"/>
		</linearGradient>
		<linearGradient x1="388.724640" y1="175.989258" x2="446.820343" y2="201.855103" id="paint_linear_735_1987_0" gradientUnits="userSpaceOnUse">
			<stop stop-color="#5E00FF"/>
			<stop offset="0.990000" stop-color="#FA00FF"/>
		</linearGradient>
		<linearGradient x1="403.310791" y1="183.034760" x2="458.384521" y2="214.831604" id="paint_linear_735_1988_0" gradientUnits="userSpaceOnUse">
			<stop stop-color="#5E00FF"/>
			<stop offset="0.990000" stop-color="#FA00FF"/>
		</linearGradient>
		<linearGradient x1="417.044830" y1="191.525574" x2="468.493195" y2="228.904984" id="paint_linear_735_1989_0" gradientUnits="userSpaceOnUse">
			<stop stop-color="#5E00FF"/>
			<stop offset="0.990000" stop-color="#FA00FF"/>
		</linearGradient>
		<linearGradient x1="429.780121" y1="201.366638" x2="477.039429" y2="243.919113" id="paint_linear_735_1990_0" gradientUnits="userSpaceOnUse">
			<stop stop-color="#5E00FF"/>
			<stop offset="0.990000" stop-color="#FA00FF"/>
		</linearGradient>
		<linearGradient x1="441.381287" y1="212.444244" x2="483.933746" y2="259.703552" id="paint_linear_735_1991_0" gradientUnits="userSpaceOnUse">
			<stop stop-color="#5E00FF"/>
			<stop offset="0.990000" stop-color="#FA00FF"/>
		</linearGradient>
		<linearGradient x1="451.724976" y1="224.634933" x2="489.104431" y2="276.083313" id="paint_linear_735_1992_0" gradientUnits="userSpaceOnUse">
			<stop stop-color="#5E00FF"/>
			<stop offset="0.990000" stop-color="#FA00FF"/>
		</linearGradient>
		<linearGradient x1="460.702148" y1="237.799240" x2="492.498993" y2="292.872986" id="paint_linear_735_1993_0" gradientUnits="userSpaceOnUse">
			<stop stop-color="#5E00FF"/>
			<stop offset="0.990000" stop-color="#FA00FF"/>
		</linearGradient>
		<linearGradient x1="468.217987" y1="251.790009" x2="494.083862" y2="309.885712" id="paint_linear_735_1994_0" gradientUnits="userSpaceOnUse">
			<stop stop-color="#5E00FF"/>
			<stop offset="0.990000" stop-color="#FA00FF"/>
		</linearGradient>
		<linearGradient x1="474.194489" y1="266.450989" x2="493.846008" y2="326.932159" id="paint_linear_735_1995_0" gradientUnits="userSpaceOnUse">
			<stop stop-color="#5E00FF"/>
			<stop offset="0.990000" stop-color="#FA00FF"/>
		</linearGradient>
		<linearGradient x1="478.569824" y1="281.615509" x2="491.791687" y2="343.819489" id="paint_linear_735_1996_0" gradientUnits="userSpaceOnUse">
			<stop stop-color="#5E00FF"/>
			<stop offset="0.990000" stop-color="#FA00FF"/>
		</linearGradient>
		<linearGradient x1="481.300232" y1="297.115509" x2="487.947571" y2="360.360809" id="paint_linear_735_1997_0" gradientUnits="userSpaceOnUse">
			<stop stop-color="#5E00FF"/>
			<stop offset="0.990000" stop-color="#FA00FF"/>
		</linearGradient>
		<linearGradient x1="482.359772" y1="312.775208" x2="482.359772" y2="376.368866" id="paint_linear_735_1998_0" gradientUnits="userSpaceOnUse">
			<stop stop-color="#5E00FF"/>
			<stop offset="0.990000" stop-color="#FA00FF"/>
		</linearGradient>
		<linearGradient x1="481.740662" y1="328.421051" x2="475.093323" y2="391.666351" id="paint_linear_735_1999_0" gradientUnits="userSpaceOnUse">
			<stop stop-color="#5E00FF"/>
			<stop offset="0.990000" stop-color="#FA00FF"/>
		</linearGradient>
		<linearGradient x1="479.453796" y1="343.875671" x2="466.231934" y2="406.079651" id="paint_linear_735_2000_0" gradientUnits="userSpaceOnUse">
			<stop stop-color="#5E00FF"/>
			<stop offset="0.990000" stop-color="#FA00FF"/>
		</linearGradient>
		<linearGradient x1="475.528015" y1="358.967773" x2="455.876495" y2="419.448944" id="paint_linear_735_2001_0" gradientUnits="userSpaceOnUse">
			<stop stop-color="#5E00FF"/>
			<stop offset="0.990000" stop-color="#FA00FF"/>
		</linearGradient>
		<linearGradient x1="470.010376" y1="373.526031" x2="444.144501" y2="431.621735" id="paint_linear_735_2002_0" gradientUnits="userSpaceOnUse">
			<stop stop-color="#5E00FF"/>
			<stop offset="0.990000" stop-color="#FA00FF"/>
		</linearGradient>
		<linearGradient x1="462.965485" y1="387.389038" x2="431.168640" y2="442.462769" id="paint_linear_735_2003_0" gradientUnits="userSpaceOnUse">
			<stop stop-color="#5E00FF"/>
			<stop offset="0.990000" stop-color="#FA00FF"/>
		</linearGradient>
		<linearGradient x1="454.474182" y1="400.398834" x2="417.094757" y2="451.847198" id="paint_linear_735_2004_0" gradientUnits="userSpaceOnUse">
			<stop stop-color="#5E00FF"/>
			<stop offset="0.990000" stop-color="#FA00FF"/>
		</linearGradient>
		<linearGradient x1="444.633759" y1="412.410004" x2="402.081299" y2="459.669312" id="paint_linear_735_2005_0" gradientUnits="userSpaceOnUse">
			<stop stop-color="#5E00FF"/>
			<stop offset="0.990000" stop-color="#FA00FF"/>
		</linearGradient>
		<linearGradient x1="433.555634" y1="423.287903" x2="386.296326" y2="465.840363" id="paint_linear_735_2006_0" gradientUnits="userSpaceOnUse">
			<stop stop-color="#5E00FF"/>
			<stop offset="0.990000" stop-color="#FA00FF"/>
		</linearGradient>
		<linearGradient x1="421.365540" y1="432.907471" x2="369.917175" y2="470.286926" id="paint_linear_735_2007_0" gradientUnits="userSpaceOnUse">
			<stop stop-color="#5E00FF"/>
			<stop offset="0.990000" stop-color="#FA00FF"/>
		</linearGradient>
		<linearGradient x1="408.200745" y1="441.161377" x2="353.127014" y2="472.958221" id="paint_linear_735_2008_0" gradientUnits="userSpaceOnUse">
			<stop stop-color="#5E00FF"/>
			<stop offset="0.990000" stop-color="#FA00FF"/>
		</linearGradient>
		<linearGradient x1="394.209625" y1="447.953094" x2="336.113922" y2="473.818970" id="paint_linear_735_2009_0" gradientUnits="userSpaceOnUse">
			<stop stop-color="#5E00FF"/>
			<stop offset="0.990000" stop-color="#FA00FF"/>
		</linearGradient>
		<linearGradient x1="379.549133" y1="453.206329" x2="319.067963" y2="472.857849" id="paint_linear_735_2010_0" gradientUnits="userSpaceOnUse">
			<stop stop-color="#5E00FF"/>
			<stop offset="0.990000" stop-color="#FA00FF"/>
		</linearGradient>
		<linearGradient x1="364.384247" y1="456.857544" x2="302.180267" y2="470.079407" id="paint_linear_735_2011_0" gradientUnits="userSpaceOnUse">
			<stop stop-color="#5E00FF"/>
			<stop offset="0.990000" stop-color="#FA00FF"/>
		</linearGradient>
		<linearGradient x1="348.884735" y1="458.863831" x2="285.639435" y2="465.511169" id="paint_linear_735_2012_0" gradientUnits="userSpaceOnUse">
			<stop stop-color="#5E00FF"/>
			<stop offset="0.990000" stop-color="#FA00FF"/>
		</linearGradient>
		<linearGradient x1="333.224548" y1="459.200104" x2="269.630890" y2="459.200104" id="paint_linear_735_2013_0" gradientUnits="userSpaceOnUse">
			<stop stop-color="#5E00FF"/>
			<stop offset="0.990000" stop-color="#FA00FF"/>
		</linearGradient>
	</defs>
	<g opacity="0.000000">
		<path id="Vector 2" d="M330.75 297.76C299.97 301.42 273.39 329.51 251.93 307.14C232.29 286.67 270.38 258.98 255.86 234.62C234.66 199.07 185.15 248.18 150.21 225.97C111.23 201.19 143.76 125.52 97.91 119.87C89.12 118.79 75.25 120.74 75.25 120.74" stroke="url(#paint_linear_735_1914_0)" stroke-opacity="1.000000" stroke-width="1.000000"/>
	</g>
	<g opacity="0.010101">
		<path id="Vector 2" d="M335.55 300.99C304.55 301.41 275.18 326.56 256.17 302.07C238.78 279.67 279.56 256.11 267.66 230.37C250.29 192.79 195.92 236.45 163.5 210.71C127.32 181.99 167.58 110.15 122.58 99.73C113.95 97.74 99.95 98.23 99.95 98.23" stroke="url(#paint_linear_735_1915_0)" stroke-opacity="1.000000" stroke-width="1.000000"/>
	</g>
	<g opacity="0.020202">
		<path id="Vector 2" d="M339.94 304.66C309.07 301.84 277.23 323.78 260.88 297.44C245.93 273.34 288.95 254.17 279.8 227.33C266.46 188.14 207.82 225.88 178.27 196.89C145.29 164.55 192.84 97.3 149.17 82.24C140.8 79.35 126.82 78.38 126.82 78.38" stroke="url(#paint_linear_735_1916_0)" stroke-opacity="1.000000" stroke-width="1.000000"/>
	</g>
	<g opacity="0.030303">
		<path id="Vector 2" d="M343.89 308.72C313.48 302.69 279.52 321.19 266.02 293.28C253.67 267.75 298.45 253.18 292.17 225.53C282.99 185.16 220.73 216.57 194.36 184.65C164.95 149.03 219.27 87.13 177.41 67.59C169.39 63.84 155.59 61.41 155.59 61.41" stroke="url(#paint_linear_735_1917_0)" stroke-opacity="1.000000" stroke-width="1.000000"/>
	</g>
	<g opacity="0.040404">
		<path id="Vector 2" d="M347.35 313.14C317.74 303.97 282.03 318.81 271.53 289.64C261.91 262.96 307.97 253.16 304.61 225C299.71 183.89 234.5 208.62 211.62 174.12C186.09 135.62 246.58 79.74 207 55.92C199.41 51.36 185.94 47.5 185.94 47.5" stroke="url(#paint_linear_735_1918_0)" stroke-opacity="1.000000" stroke-width="1.000000"/>
	</g>
	<g opacity="0.050505">
		<path id="Vector 2" d="M350.3 317.86C321.81 305.64 284.75 316.67 277.35 286.56C270.58 259.02 317.41 254.09 317.01 225.73C316.43 184.34 248.99 202.11 229.84 165.41C208.47 124.46 274.48 75.2 237.6 47.38C230.53 42.04 217.54 36.8 217.54 36.8" stroke="url(#paint_linear_735_1919_0)" stroke-opacity="1.000000" stroke-width="1.000000"/>
	</g>
	<g opacity="0.060606">
		<path id="Vector 2" d="M352.71 322.82C325.65 307.68 287.64 314.78 283.42 284.07C279.57 255.97 326.66 255.96 329.22 227.71C332.97 186.49 264.05 197.11 248.84 158.61C231.87 115.65 302.66 73.56 268.9 42.04C262.42 36 250.05 29.42 250.05 29.42" stroke="url(#paint_linear_735_1920_0)" stroke-opacity="1.000000" stroke-width="1.000000"/>
	</g>
	<g opacity="0.070707">
		<path id="Vector 2" d="M354.54 327.96C329.22 310.08 290.67 313.17 289.69 282.18C288.79 253.84 335.62 258.74 341.13 230.92C349.17 190.31 279.51 193.68 268.41 153.8C256.02 109.3 330.83 74.84 300.54 39.96C294.73 33.27 283.12 25.44 283.12 25.44" stroke="url(#paint_linear_735_1921_0)" stroke-opacity="1.000000" stroke-width="1.000000"/>
	</g>
	<g opacity="0.080808">
		<path id="Vector 2" d="M355.8 333.23C332.48 312.8 293.82 311.84 296.08 280.92C298.15 252.64 344.22 262.41 352.6 235.32C364.84 195.77 295.21 191.84 288.34 151.02C280.67 105.46 358.67 79.01 332.19 41.16C327.12 33.9 316.39 24.9 316.39 24.9" stroke="url(#paint_linear_735_1922_0)" stroke-opacity="1.000000" stroke-width="1.000000"/>
	</g>
	<g opacity="0.090909">
		<path id="Vector 2" d="M356.46 338.56C335.4 315.8 297.05 310.81 302.54 280.29C307.55 252.38 352.34 266.92 363.51 240.85C379.82 202.8 310.99 191.61 308.42 150.29C305.55 104.19 385.89 86.04 363.51 45.62C359.22 37.87 349.49 27.8 349.49 27.8" stroke="url(#paint_linear_735_1923_0)" stroke-opacity="1.000000" stroke-width="1.000000"/>
	</g>
	<g opacity="0.101010">
		<path id="Vector 2" d="M356.52 343.89C337.96 319.06 300.34 310.08 308.99 280.31C316.89 253.07 359.92 272.21 373.75 247.45C393.94 211.32 326.66 192.99 328.42 151.63C330.39 105.48 412.19 95.82 394.16 53.29C390.7 45.14 382.07 34.1 382.07 34.1" stroke="url(#paint_linear_735_1924_0)" stroke-opacity="1.000000" stroke-width="1.000000"/>
	</g>
	<g opacity="0.111111">
		<path id="Vector 2" d="M355.99 349.15C340.12 322.52 303.66 309.66 315.36 280.95C326.07 254.69 366.86 278.23 383.21 255.05C407.07 221.22 342.06 195.96 348.14 155.02C354.93 109.32 437.28 108.27 423.8 64.09C421.21 55.62 413.79 43.74 413.79 43.74" stroke="url(#paint_linear_735_1925_0)" stroke-opacity="1.000000" stroke-width="1.000000"/>
	</g>
	<g opacity="0.121212">
		<path id="Vector 2" d="M354.88 354.3C341.88 326.15 306.96 309.55 321.6 282.22C335 257.23 373.1 284.89 391.78 263.55C419.05 232.4 357.04 200.49 367.37 160.4C378.89 115.67 460.9 123.23 452.11 77.88C450.42 69.19 444.28 56.6 444.28 56.6" stroke="url(#paint_linear_735_1926_0)" stroke-opacity="1.000000" stroke-width="1.000000"/>
	</g>
	<g opacity="0.131313">
		<path id="Vector 2" d="M353.2 359.26C343.21 329.91 310.22 309.74 327.64 284.1C343.57 260.64 378.58 292.14 399.38 272.87C429.75 244.74 371.42 206.52 385.88 167.73C402.02 124.45 482.79 140.54 478.79 94.52C478.02 85.69 473.23 72.53 473.23 72.53" stroke="url(#paint_linear_735_1927_0)" stroke-opacity="1.000000" stroke-width="1.000000"/>
	</g>
	<g opacity="0.141414">
		<path id="Vector 2" d="M350.97 363.97C344.11 333.74 313.4 310.24 333.41 286.56C351.71 264.89 383.23 299.87 405.93 282.88C439.08 258.09 385.06 213.98 403.5 176.91C424.07 135.55 502.72 160 503.55 113.81C503.71 104.96 500.32 91.37 500.32 91.37" stroke="url(#paint_linear_735_1928_0)" stroke-opacity="1.000000" stroke-width="1.000000"/>
	</g>
	<g opacity="0.151515">
		<path id="Vector 2" d="M348.23 368.39C344.57 337.61 316.48 311.02 338.85 289.56C359.32 269.93 387.01 308.02 411.37 293.49C446.92 272.29 397.81 222.78 420.02 187.85C444.8 148.86 520.47 181.39 526.12 135.55C527.2 126.76 525.25 112.89 525.25 112.89" stroke="url(#paint_linear_735_1929_0)" stroke-opacity="1.000000" stroke-width="1.000000"/>
	</g>
	<g opacity="0.161616">
		<path id="Vector 2" d="M345 372.46C344.58 341.46 319.43 312.09 343.92 293.08C366.32 275.69 389.88 316.47 415.63 304.57C453.2 287.2 409.54 232.83 435.28 200.41C464 164.23 535.84 204.49 546.26 159.49C548.26 150.86 547.76 136.86 547.76 136.86" stroke="url(#paint_linear_735_1930_0)" stroke-opacity="1.000000" stroke-width="1.000000"/>
	</g>
	<g opacity="0.171717">
		<path id="Vector 2" d="M341.34 376.12C344.15 345.25 322.21 313.41 348.55 297.07C372.65 282.12 391.82 325.13 418.67 315.99C457.85 302.65 420.11 244.01 449.1 214.45C481.44 181.47 548.69 229.03 563.75 185.36C566.64 176.98 567.61 163.01 567.61 163.01" stroke="url(#paint_linear_735_1931_0)" stroke-opacity="1.000000" stroke-width="1.000000"/>
	</g>
	<g opacity="0.181818">
		<path id="Vector 2" d="M337.27 379.35C343.3 348.94 324.8 314.98 352.71 301.48C378.24 289.14 392.81 333.91 420.46 327.63C460.83 318.45 429.42 256.19 461.34 229.83C496.96 200.41 558.86 254.73 578.4 212.88C582.15 204.85 584.58 191.06 584.58 191.06" stroke="url(#paint_linear_735_1932_0)" stroke-opacity="1.000000" stroke-width="1.000000"/>
	</g>
	<g opacity="0.191919">
		<path id="Vector 2" d="M332.85 382.09C342.03 352.48 327.18 316.77 356.35 306.27C383.03 296.65 392.83 342.71 420.99 339.35C462.1 334.45 437.37 269.24 471.87 246.36C510.37 220.82 566.26 281.32 590.07 241.74C594.63 234.15 598.49 220.68 598.49 220.68" stroke="url(#paint_linear_735_1933_0)" stroke-opacity="1.000000" stroke-width="1.000000"/>
	</g>
	<g opacity="0.202020">
		<path id="Vector 2" d="M328.13 384.32C340.35 355.83 329.32 318.76 359.43 311.36C386.97 304.59 391.9 351.42 420.26 351.02C461.65 350.44 443.88 283.01 480.58 263.86C521.53 242.49 570.79 308.49 598.61 271.62C603.95 264.55 609.19 251.56 609.19 251.56" stroke="url(#paint_linear_735_1934_0)" stroke-opacity="1.000000" stroke-width="1.000000"/>
	</g>
	<g opacity="0.212121">
		<path id="Vector 2" d="M323.18 386C338.31 358.94 331.21 320.93 361.92 316.71C390.02 312.86 390.03 359.95 418.28 362.52C459.5 366.27 448.88 297.34 487.38 282.13C530.34 265.16 572.43 335.96 603.95 302.19C610 295.71 616.57 283.34 616.57 283.34" stroke="url(#paint_linear_735_1935_0)" stroke-opacity="1.000000" stroke-width="1.000000"/>
	</g>
	<g opacity="0.222222">
		<path id="Vector 2" d="M318.03 387.11C335.91 361.78 332.82 323.24 363.81 322.26C392.16 321.36 387.25 368.19 415.07 373.7C455.68 381.74 452.31 312.08 492.19 300.98C536.69 288.59 571.15 363.4 606.03 333.11C612.72 327.3 620.55 315.69 620.55 315.69" stroke="url(#paint_linear_735_1936_0)" stroke-opacity="1.000000" stroke-width="1.000000"/>
	</g>
	<g opacity="0.232323">
		<path id="Vector 2" d="M312.76 387.64C333.19 364.32 334.15 325.66 365.07 327.93C393.35 330 383.58 376.06 410.67 384.45C450.22 396.68 454.15 327.06 494.97 320.19C540.53 312.52 566.98 390.52 604.83 364.04C612.09 358.96 621.09 348.23 621.09 348.23" stroke="url(#paint_linear_735_1937_0)" stroke-opacity="1.000000" stroke-width="1.000000"/>
	</g>
	<g opacity="0.242424">
		<path id="Vector 2" d="M307.44 387.58C330.19 366.52 335.18 328.18 365.7 333.66C393.61 338.68 379.07 383.46 405.14 394.63C443.19 410.94 454.38 342.11 495.7 339.54C541.8 336.67 559.96 417.01 600.37 394.63C608.12 390.34 618.19 380.61 618.19 380.61" stroke="url(#paint_linear_735_1938_0)" stroke-opacity="1.000000" stroke-width="1.000000"/>
	</g>
	<g opacity="0.252525">
		<path id="Vector 2" d="M302.1 386.92C326.93 368.35 335.91 330.74 365.68 339.38C392.92 347.29 373.78 390.31 398.54 404.15C434.67 424.34 453 357.06 494.36 358.82C540.51 360.79 550.17 442.58 592.7 424.55C600.85 421.1 611.89 412.47 611.89 412.47" stroke="url(#paint_linear_735_1939_0)" stroke-opacity="1.000000" stroke-width="1.000000"/>
	</g>
	<g opacity="0.262626">
		<path id="Vector 2" d="M296.84 385.66C323.47 369.8 336.33 333.33 365.04 345.04C391.3 355.75 367.77 396.53 390.94 412.88C424.77 436.74 450.03 371.74 490.97 377.82C536.67 384.6 537.72 466.95 581.9 453.47C590.37 450.89 602.25 443.46 602.25 443.46" stroke="url(#paint_linear_735_1940_0)" stroke-opacity="1.000000" stroke-width="1.000000"/>
	</g>
	<g opacity="0.272727">
		<path id="Vector 2" d="M291.7 383.83C319.84 370.83 336.44 335.91 363.77 350.55C388.76 363.95 361.1 402.05 382.44 420.73C413.59 447.99 445.5 385.99 485.59 396.32C530.32 407.84 522.76 489.85 568.11 481.06C576.81 479.37 589.39 473.23 589.39 473.23" stroke="url(#paint_linear_735_1941_0)" stroke-opacity="1.000000" stroke-width="1.000000"/>
	</g>
	<g opacity="0.282828">
		<path id="Vector 2" d="M286.74 381.42C316.09 371.44 336.25 338.44 361.89 355.86C385.35 371.8 353.85 406.8 373.12 427.61C401.25 457.98 439.47 399.65 478.26 414.11C521.55 430.25 505.45 511.02 551.47 507.02C560.3 506.25 573.46 501.45 573.46 501.45" stroke="url(#paint_linear_735_1942_0)" stroke-opacity="1.000000" stroke-width="1.000000"/>
	</g>
	<g opacity="0.292929">
		<path id="Vector 2" d="M282.02 378.47C312.25 371.61 335.75 340.9 359.43 360.91C381.1 379.21 346.12 410.73 363.11 433.44C387.91 466.58 432.02 412.57 469.08 431C510.44 451.57 485.99 530.22 532.18 531.05C541.03 531.21 554.63 527.82 554.63 527.82" stroke="url(#paint_linear_735_1943_0)" stroke-opacity="1.000000" stroke-width="1.000000"/>
	</g>
	<g opacity="0.303030">
		<path id="Vector 2" d="M277.6 375.01C308.39 371.35 334.97 343.26 356.43 365.63C376.06 386.1 337.98 413.79 352.5 438.14C373.7 473.7 423.21 424.59 458.15 446.8C497.13 471.58 464.6 547.25 510.44 552.9C519.23 553.98 533.1 552.03 533.1 552.03" stroke="url(#paint_linear_735_1944_0)" stroke-opacity="1.000000" stroke-width="1.000000"/>
	</g>
	<g opacity="0.313131">
		<path id="Vector 2" d="M273.53 371.06C304.53 370.64 333.9 345.48 352.91 369.97C370.3 392.38 329.52 415.94 341.42 441.68C358.79 479.26 413.16 435.59 445.59 461.33C481.76 490.05 441.5 561.9 486.51 572.31C495.13 574.31 509.13 573.82 509.13 573.82" stroke="url(#paint_linear_735_1945_0)" stroke-opacity="1.000000" stroke-width="1.000000"/>
	</g>
	<g opacity="0.323232">
		<path id="Vector 2" d="M269.87 366.67C300.74 369.48 332.58 347.54 348.92 373.88C363.87 397.98 320.86 417.15 330 444C343.34 483.18 401.98 445.44 431.54 474.43C464.52 506.77 416.96 574.02 460.63 589.08C469.01 591.97 482.98 592.94 482.98 592.94" stroke="url(#paint_linear_735_1946_0)" stroke-opacity="1.000000" stroke-width="1.000000"/>
	</g>
	<g opacity="0.333333">
		<path id="Vector 2" d="M266.64 361.88C297.05 367.91 331.01 349.41 344.51 377.32C356.86 402.85 312.08 417.41 318.36 445.07C327.54 485.43 389.8 454.03 416.16 485.95C445.58 521.56 391.26 583.47 433.12 603.01C441.14 606.76 454.93 609.19 454.93 609.19" stroke="url(#paint_linear_735_1947_0)" stroke-opacity="1.000000" stroke-width="1.000000"/>
	</g>
	<g opacity="0.343434">
		<path id="Vector 2" d="M263.9 356.73C293.51 365.91 329.22 351.06 339.72 380.23C349.34 406.91 303.28 416.72 306.64 444.88C311.54 485.98 376.75 461.26 399.63 495.76C425.17 534.25 364.67 590.14 404.26 613.95C411.84 618.52 425.31 622.37 425.31 622.37" stroke="url(#paint_linear_735_1948_0)" stroke-opacity="1.000000" stroke-width="1.000000"/>
	</g>
	<g opacity="0.353535">
		<path id="Vector 2" d="M261.67 351.29C290.16 363.51 327.23 352.48 334.63 382.59C341.4 410.13 294.57 415.06 294.97 443.42C295.55 484.81 362.98 467.04 382.13 503.74C403.5 544.69 337.5 593.95 374.37 621.77C381.44 627.1 394.43 632.35 394.43 632.35" stroke="url(#paint_linear_735_1949_0)" stroke-opacity="1.000000" stroke-width="1.000000"/>
	</g>
	<g opacity="0.363636">
		<path id="Vector 2" d="M259.99 345.61C287.05 360.74 325.06 353.65 329.28 384.36C333.13 412.46 286.04 412.47 283.47 440.71C279.73 481.94 348.65 471.31 363.86 509.81C380.83 552.78 310.04 594.87 343.8 626.39C350.28 632.43 362.65 639.01 362.65 639.01" stroke="url(#paint_linear_735_1950_0)" stroke-opacity="1.000000" stroke-width="1.000000"/>
	</g>
	<g opacity="0.373737">
		<path id="Vector 2" d="M258.88 339.74C284.21 357.62 322.75 354.54 323.73 385.52C324.63 413.87 277.8 408.96 272.29 436.78C264.25 477.39 333.91 474.03 345.01 513.9C357.4 558.41 282.59 592.87 312.88 627.74C318.69 634.43 330.3 642.26 330.3 642.26" stroke="url(#paint_linear_735_1951_0)" stroke-opacity="1.000000" stroke-width="1.000000"/>
	</g>
	<g opacity="0.383838">
		<path id="Vector 2" d="M258.35 333.75C281.67 354.18 320.33 355.14 318.06 386.06C315.99 414.34 269.93 404.57 261.54 431.66C249.31 471.21 318.93 475.14 325.8 515.96C333.47 561.52 255.48 587.97 281.95 625.82C287.03 633.08 297.76 642.08 297.76 642.08" stroke="url(#paint_linear_735_1952_0)" stroke-opacity="1.000000" stroke-width="1.000000"/>
	</g>
	<g opacity="0.393939">
		<path id="Vector 2" d="M258.41 327.7C279.47 350.45 317.82 355.45 312.33 385.96C307.32 413.87 262.53 399.34 251.36 425.4C235.05 463.45 303.89 474.65 306.45 515.96C309.32 562.07 228.98 580.22 251.36 620.63C255.65 628.38 265.38 638.46 265.38 638.46" stroke="url(#paint_linear_735_1953_0)" stroke-opacity="1.000000" stroke-width="1.000000"/>
	</g>
	<g opacity="0.404040">
		<path id="Vector 2" d="M259.07 321.65C277.64 346.48 315.25 355.45 306.61 385.22C298.7 412.46 255.68 393.32 241.84 418.08C221.65 454.22 288.94 472.54 287.17 513.9C285.2 560.05 203.41 569.71 221.44 612.24C224.89 620.39 233.52 631.43 233.52 631.43" stroke="url(#paint_linear_735_1954_0)" stroke-opacity="1.000000" stroke-width="1.000000"/>
	</g>
	<g opacity="0.414141">
		<path id="Vector 2" d="M260.33 315.66C276.19 342.29 312.66 355.15 300.95 383.85C290.24 410.11 249.46 386.58 233.11 409.76C209.25 443.59 274.25 468.85 268.17 509.79C261.39 555.48 179.04 556.54 192.52 600.72C195.11 609.19 202.53 621.07 202.53 621.07" stroke="url(#paint_linear_735_1955_0)" stroke-opacity="1.000000" stroke-width="1.000000"/>
	</g>
	<g opacity="0.424242">
		<path id="Vector 2" d="M262.16 309.79C275.16 337.93 310.08 354.54 295.44 381.86C282.04 406.86 243.94 379.19 225.26 400.53C198 431.68 260 463.6 249.68 503.68C238.15 548.42 156.14 540.86 164.93 586.2C166.62 594.9 172.76 607.49 172.76 607.49" stroke="url(#paint_linear_735_1956_0)" stroke-opacity="1.000000" stroke-width="1.000000"/>
	</g>
	<g opacity="0.434343">
		<path id="Vector 2" d="M264.57 304.1C274.55 333.46 307.55 353.62 290.13 379.26C274.19 402.72 239.19 371.22 218.38 390.49C188.01 418.62 246.34 456.84 231.88 495.63C215.75 538.92 134.97 522.82 138.98 568.84C139.74 577.67 144.54 590.83 144.54 590.83" stroke="url(#paint_linear_735_1957_0)" stroke-opacity="1.000000" stroke-width="1.000000"/>
	</g>
	<g opacity="0.444444">
		<path id="Vector 2" d="M267.52 298.67C274.38 328.9 305.09 352.4 285.08 376.08C266.78 397.75 235.26 362.76 212.55 379.75C179.41 404.55 233.42 448.66 214.99 485.73C194.42 527.09 115.77 502.64 114.94 548.83C114.78 557.68 118.17 571.27 118.17 571.27" stroke="url(#paint_linear_735_1958_0)" stroke-opacity="1.000000" stroke-width="1.000000"/>
	</g>
	<g opacity="0.454545">
		<path id="Vector 2" d="M270.98 293.52C274.65 324.31 302.73 350.89 280.36 372.35C259.9 391.98 232.21 353.9 207.85 368.42C172.29 389.62 221.4 439.13 199.19 474.07C174.41 513.05 98.75 480.52 93.09 526.36C92.01 535.15 93.96 549.03 93.96 549.03" stroke="url(#paint_linear_735_1959_0)" stroke-opacity="1.000000" stroke-width="1.000000"/>
	</g>
	<g opacity="0.464646">
		<path id="Vector 2" d="M274.93 288.73C275.36 319.73 300.51 349.1 276.02 368.11C253.61 385.49 230.06 344.72 204.31 356.62C166.73 373.99 210.4 428.36 184.66 460.78C155.94 496.96 84.09 456.7 73.68 501.7C71.68 510.33 72.17 524.33 72.17 524.33" stroke="url(#paint_linear_735_1960_0)" stroke-opacity="1.000000" stroke-width="1.000000"/>
	</g>
	<g opacity="0.474747">
		<path id="Vector 2" d="M279.32 284.34C276.51 315.21 298.45 347.05 272.11 363.39C248.01 378.35 228.84 335.33 201.99 344.47C162.81 357.82 200.55 416.46 171.56 446.01C139.22 478.99 71.97 431.44 56.91 475.11C54.02 483.48 53.05 497.45 53.05 497.45" stroke="url(#paint_linear_735_1961_0)" stroke-opacity="1.000000" stroke-width="1.000000"/>
	</g>
	<g opacity="0.484848">
		<path id="Vector 2" d="M284.12 280.39C278.09 310.8 296.58 344.76 268.67 358.26C243.14 370.61 228.58 325.83 200.92 332.11C160.56 341.29 191.96 403.55 160.04 429.91C124.43 459.33 62.52 405.01 42.98 446.87C39.23 454.89 36.8 468.69 36.8 468.69" stroke="url(#paint_linear_735_1962_0)" stroke-opacity="1.000000" stroke-width="1.000000"/>
	</g>
	<g opacity="0.494949">
		<path id="Vector 2" d="M289.26 276.93C280.08 306.54 294.93 342.25 265.76 352.75C239.08 362.36 229.27 316.31 201.11 319.67C160.01 324.57 184.73 389.78 150.24 412.66C111.74 438.19 55.85 377.7 32.04 417.28C27.48 424.87 23.62 438.34 23.62 438.34" stroke="url(#paint_linear_735_1963_0)" stroke-opacity="1.000000" stroke-width="1.000000"/>
	</g>
	<g opacity="0.505050">
		<path id="Vector 2" d="M294.7 273.98C282.48 302.47 293.51 339.53 263.4 346.93C235.86 353.7 230.93 306.87 202.57 307.27C161.18 307.85 178.95 375.29 142.25 394.44C101.3 415.81 52.04 349.8 24.22 386.68C18.89 393.75 13.64 406.74 13.64 406.74" stroke="url(#paint_linear_735_1964_0)" stroke-opacity="1.000000" stroke-width="1.000000"/>
	</g>
	<g opacity="0.515152">
		<path id="Vector 2" d="M300.38 271.57C285.25 298.63 292.35 336.64 261.63 340.86C233.54 344.71 233.52 297.62 205.28 295.06C164.05 291.31 174.68 360.23 136.18 375.44C93.21 392.41 51.12 321.62 19.6 355.38C13.56 361.86 6.99 374.23 6.99 374.23" stroke="url(#paint_linear_735_1965_0)" stroke-opacity="1.000000" stroke-width="1.000000"/>
	</g>
	<g opacity="0.525253">
		<path id="Vector 2" d="M306.25 269.74C288.37 295.06 291.45 333.61 260.47 334.59C232.12 335.49 237.03 288.65 209.21 283.15C168.6 275.11 171.97 344.77 132.09 355.87C87.58 368.25 53.12 293.45 18.25 323.74C11.56 329.55 3.73 341.16 3.73 341.16" stroke="url(#paint_linear_735_1966_0)" stroke-opacity="1.000000" stroke-width="1.000000"/>
	</g>
	<g opacity="0.535354">
		<path id="Vector 2" d="M312.24 268.48C291.81 291.8 290.85 330.46 259.93 328.2C231.65 326.12 241.42 280.06 214.33 271.68C174.79 259.44 170.85 329.06 130.03 335.94C84.48 343.6 58.02 265.61 20.17 292.08C12.91 297.16 3.91 307.89 3.91 307.89" stroke="url(#paint_linear_735_1967_0)" stroke-opacity="1.000000" stroke-width="1.000000"/>
	</g>
	<g opacity="0.545455">
		<path id="Vector 2" d="M318.29 267.82C295.54 288.88 290.54 327.22 260.03 321.74C232.12 316.72 246.65 271.94 220.59 260.77C182.54 244.46 171.34 313.29 130.03 315.86C83.92 318.73 65.77 238.39 25.36 260.77C17.61 265.06 7.54 274.79 7.54 274.79" stroke="url(#paint_linear_735_1968_0)" stroke-opacity="1.000000" stroke-width="1.000000"/>
	</g>
	<g opacity="0.555556">
		<path id="Vector 2" d="M324.34 267.76C299.51 286.32 290.54 323.93 260.77 315.29C233.53 307.39 252.67 264.36 227.91 250.53C191.78 230.34 173.45 297.62 132.09 295.85C85.94 293.88 76.28 212.09 33.75 230.12C25.6 233.58 14.56 242.2 14.56 242.2" stroke="url(#paint_linear_735_1969_0)" stroke-opacity="1.000000" stroke-width="1.000000"/>
	</g>
	<g opacity="0.565657">
		<path id="Vector 2" d="M330.34 268.29C303.7 284.15 290.84 320.62 262.14 308.92C235.88 298.21 259.41 257.42 236.23 241.07C202.4 217.21 177.15 282.21 136.2 276.14C90.51 269.35 89.45 187 45.27 200.48C36.8 203.07 24.92 210.49 24.92 210.49" stroke="url(#paint_linear_735_1970_0)" stroke-opacity="1.000000" stroke-width="1.000000"/>
	</g>
	<g opacity="0.575758">
		<path id="Vector 2" d="M336.2 269.4C308.06 282.4 291.46 317.32 264.13 302.68C239.13 289.28 266.8 251.18 245.46 232.5C214.31 205.23 182.4 267.24 142.31 256.91C97.58 245.39 105.14 163.38 59.79 172.17C51.09 173.85 38.5 180 38.5 180" stroke="url(#paint_linear_735_1971_0)" stroke-opacity="1.000000" stroke-width="1.000000"/>
	</g>
	<g opacity="0.585859">
		<path id="Vector 2" d="M341.89 271.08C312.54 281.06 292.37 314.06 266.73 296.64C243.27 280.71 274.77 245.7 255.5 224.9C227.37 194.52 189.15 252.85 150.36 238.39C107.08 222.26 123.17 141.49 77.15 145.49C68.32 146.26 55.16 151.05 55.16 151.05" stroke="url(#paint_linear_735_1972_0)" stroke-opacity="1.000000" stroke-width="1.000000"/>
	</g>
	<g opacity="0.595960">
		<path id="Vector 2" d="M347.33 273.31C317.09 280.17 293.59 310.88 269.91 290.87C248.25 272.57 283.23 241.05 266.24 218.34C241.44 185.2 197.33 239.21 160.27 220.78C118.91 200.21 143.35 121.56 97.16 120.73C88.31 120.57 74.72 123.96 74.72 123.96" stroke="url(#paint_linear_735_1973_0)" stroke-opacity="1.000000" stroke-width="1.000000"/>
	</g>
	<g opacity="0.606061">
		<path id="Vector 2" d="M352.47 276.05C321.68 279.71 295.1 307.8 273.64 285.43C254.01 264.96 292.09 237.27 277.57 212.91C256.37 177.36 206.86 226.46 171.92 204.26C132.94 179.47 165.47 103.81 119.63 98.16C110.84 97.08 96.97 99.03 96.97 99.03" stroke="url(#paint_linear_735_1974_0)" stroke-opacity="1.000000" stroke-width="1.000000"/>
	</g>
	<g opacity="0.616162">
		<path id="Vector 2" d="M357.26 279.27C326.26 279.7 296.89 304.85 277.88 280.36C260.5 257.95 301.27 234.4 289.37 208.65C272 171.08 217.63 214.74 185.21 189C149.03 160.28 189.29 88.43 144.29 78.02C135.66 76.02 121.66 76.52 121.66 76.52" stroke="url(#paint_linear_735_1975_0)" stroke-opacity="1.000000" stroke-width="1.000000"/>
	</g>
	<g opacity="0.626263">
		<path id="Vector 2" d="M361.65 282.94C330.78 280.12 298.94 302.07 282.6 275.72C267.65 251.63 310.66 232.46 301.52 205.61C288.17 166.43 229.53 204.17 199.98 175.18C167 142.83 214.55 75.59 170.88 60.53C162.51 57.64 148.54 56.67 148.54 56.67" stroke="url(#paint_linear_735_1976_0)" stroke-opacity="1.000000" stroke-width="1.000000"/>
	</g>
	<g opacity="0.636364">
		<path id="Vector 2" d="M365.6 287.01C335.19 280.98 301.23 299.48 287.73 271.57C275.38 246.04 320.16 231.47 313.88 203.82C304.7 163.45 242.44 194.86 216.08 162.94C186.66 127.32 240.98 65.42 199.13 45.87C191.1 42.13 177.31 39.7 177.31 39.7" stroke="url(#paint_linear_735_1977_0)" stroke-opacity="1.000000" stroke-width="1.000000"/>
	</g>
	<g opacity="0.646465">
		<path id="Vector 2" d="M369.06 291.43C339.45 282.25 303.75 297.1 293.24 267.93C283.63 241.25 329.68 231.45 326.32 203.28C321.42 162.18 256.21 186.9 233.33 152.41C207.8 113.91 268.29 58.02 228.71 34.21C221.12 29.65 207.65 25.79 207.65 25.79" stroke="url(#paint_linear_735_1978_0)" stroke-opacity="1.000000" stroke-width="1.000000"/>
	</g>
	<g opacity="0.656566">
		<path id="Vector 2" d="M372.01 296.14C343.52 283.92 306.46 294.96 299.06 264.85C292.29 237.31 339.12 232.37 338.72 204.02C338.14 162.63 270.71 180.4 251.56 143.7C230.19 102.74 296.19 53.48 259.31 25.67C252.24 20.33 239.25 15.09 239.25 15.09" stroke="url(#paint_linear_735_1979_0)" stroke-opacity="1.000000" stroke-width="1.000000"/>
	</g>
	<g opacity="0.666667">
		<path id="Vector 2" d="M374.42 301.1C347.36 285.97 309.35 293.07 305.13 262.35C301.28 234.26 348.37 234.24 350.94 206C354.69 164.77 285.76 175.4 270.55 136.9C253.58 93.94 324.38 51.85 290.61 20.33C284.13 14.28 271.76 7.71 271.76 7.71" stroke="url(#paint_linear_735_1980_0)" stroke-opacity="1.000000" stroke-width="1.000000"/>
	</g>
	<g opacity="0.676768">
		<path id="Vector 2" d="M376.25 306.25C350.93 288.37 312.38 291.45 311.4 260.47C310.5 232.12 357.34 237.03 362.84 209.21C370.88 168.6 301.23 171.97 290.12 132.09C277.74 87.58 352.54 53.12 322.25 18.25C316.45 11.56 304.83 3.73 304.83 3.73" stroke="url(#paint_linear_735_1981_0)" stroke-opacity="1.000000" stroke-width="1.000000"/>
	</g>
	<g opacity="0.686869">
		<path id="Vector 2" d="M377.51 311.51C354.19 291.09 315.53 290.13 317.79 259.21C319.87 230.92 365.93 240.7 374.31 213.61C386.55 174.06 316.93 170.13 310.05 129.3C302.39 83.75 380.38 57.3 353.91 19.45C348.83 12.19 338.1 3.19 338.1 3.19" stroke="url(#paint_linear_735_1982_0)" stroke-opacity="1.000000" stroke-width="1.000000"/>
	</g>
	<g opacity="0.696970">
		<path id="Vector 2" d="M378.17 316.84C357.11 294.09 318.77 289.1 324.25 258.58C329.27 230.67 374.05 245.21 385.22 219.14C401.53 181.09 332.7 169.9 330.13 128.58C327.26 82.48 407.6 64.32 385.22 23.91C380.94 16.16 371.2 6.09 371.2 6.09" stroke="url(#paint_linear_735_1983_0)" stroke-opacity="1.000000" stroke-width="1.000000"/>
	</g>
	<g opacity="0.707071">
		<path id="Vector 2" d="M378.23 322.17C359.67 297.34 322.06 288.37 330.7 258.6C338.61 231.36 381.63 250.5 395.46 225.74C415.66 189.6 348.37 171.28 350.14 129.92C352.11 83.77 433.9 74.11 415.87 31.58C412.41 23.43 403.79 12.39 403.79 12.39" stroke="url(#paint_linear_735_1984_0)" stroke-opacity="1.000000" stroke-width="1.000000"/>
	</g>
	<g opacity="0.717172">
		<path id="Vector 2" d="M377.7 327.44C361.84 300.81 325.37 287.95 337.08 259.24C347.79 232.98 388.57 256.51 404.92 233.34C428.78 199.51 363.78 174.25 369.86 133.3C376.64 87.61 458.99 86.56 445.51 42.37C442.92 33.9 435.5 22.03 435.5 22.03" stroke="url(#paint_linear_735_1985_0)" stroke-opacity="1.000000" stroke-width="1.000000"/>
	</g>
	<g opacity="0.727273">
		<path id="Vector 2" d="M376.59 332.58C363.59 304.44 328.67 287.84 343.31 260.51C356.71 235.52 394.81 263.18 413.49 241.84C440.76 210.69 378.75 178.78 389.08 138.69C400.6 93.96 482.61 101.52 473.82 56.17C472.14 47.47 465.99 34.88 465.99 34.88" stroke="url(#paint_linear_735_1986_0)" stroke-opacity="1.000000" stroke-width="1.000000"/>
	</g>
	<g opacity="0.737374">
		<path id="Vector 2" d="M374.91 337.54C364.93 308.19 331.93 288.03 349.35 262.39C365.28 238.93 400.29 270.43 421.09 251.15C451.47 223.03 393.14 184.81 407.6 146.02C423.73 102.73 504.5 118.82 500.5 72.8C499.73 63.98 494.94 50.82 494.94 50.82" stroke="url(#paint_linear_735_1987_0)" stroke-opacity="1.000000" stroke-width="1.000000"/>
	</g>
	<g opacity="0.747475">
		<path id="Vector 2" d="M372.68 342.26C365.82 312.03 335.11 288.53 355.12 264.84C373.42 243.18 404.94 278.16 427.65 261.17C460.79 236.37 406.78 192.26 425.21 155.2C445.78 113.84 524.43 138.28 525.26 92.1C525.42 83.24 522.03 69.65 522.03 69.65" stroke="url(#paint_linear_735_1988_0)" stroke-opacity="1.000000" stroke-width="1.000000"/>
	</g>
	<g opacity="0.757576">
		<path id="Vector 2" d="M369.94 346.68C366.28 315.89 338.19 289.31 360.56 267.85C381.03 248.22 408.72 286.3 433.08 271.78C468.63 250.58 419.53 201.07 441.74 166.13C466.52 127.15 542.18 159.68 547.83 113.84C548.92 105.05 546.96 91.17 546.96 91.17" stroke="url(#paint_linear_735_1989_0)" stroke-opacity="1.000000" stroke-width="1.000000"/>
	</g>
	<g opacity="0.767677">
		<path id="Vector 2" d="M366.72 350.74C366.29 319.75 341.14 290.38 365.63 271.37C388.04 253.98 411.59 294.76 437.34 282.86C474.91 265.49 431.25 211.12 456.99 178.69C485.71 142.52 557.56 182.78 567.97 137.77C569.97 129.14 569.48 115.15 569.48 115.15" stroke="url(#paint_linear_735_1990_0)" stroke-opacity="1.000000" stroke-width="1.000000"/>
	</g>
	<g opacity="0.777778">
		<path id="Vector 2" d="M363.05 354.41C365.87 323.54 343.92 291.7 370.27 275.36C394.37 260.41 413.53 303.42 440.38 294.28C479.56 280.94 441.82 222.29 470.81 192.74C503.16 159.76 570.4 207.31 585.46 163.64C588.35 155.27 589.32 141.3 589.32 141.3" stroke="url(#paint_linear_735_1991_0)" stroke-opacity="1.000000" stroke-width="1.000000"/>
	</g>
	<g opacity="0.787879">
		<path id="Vector 2" d="M358.98 357.64C365.01 327.23 346.51 293.27 374.42 279.77C399.95 267.42 414.52 312.2 442.17 305.92C482.54 296.74 451.14 234.48 483.05 208.12C518.67 178.7 580.57 233.02 600.12 191.16C603.86 183.14 606.29 169.34 606.29 169.34" stroke="url(#paint_linear_735_1992_0)" stroke-opacity="1.000000" stroke-width="1.000000"/>
	</g>
	<g opacity="0.797980">
		<path id="Vector 2" d="M354.56 360.38C363.74 330.77 348.89 295.06 378.06 284.55C404.74 274.94 414.55 321 442.71 317.64C483.81 312.73 459.09 247.53 493.58 224.65C532.08 199.11 587.97 259.61 611.78 220.02C616.34 212.43 620.2 198.97 620.2 198.97" stroke="url(#paint_linear_735_1993_0)" stroke-opacity="1.000000" stroke-width="1.000000"/>
	</g>
	<g opacity="0.808081">
		<path id="Vector 2" d="M349.85 362.6C362.07 334.11 351.04 297.05 381.14 289.65C408.68 282.88 413.62 329.71 441.97 329.31C483.37 328.73 465.59 261.3 502.29 242.15C543.25 220.78 592.51 286.78 620.32 249.9C625.66 242.83 630.9 229.85 630.9 229.85" stroke="url(#paint_linear_735_1994_0)" stroke-opacity="1.000000" stroke-width="1.000000"/>
	</g>
	<g opacity="0.818182">
		<path id="Vector 2" d="M344.89 364.29C360.02 337.23 352.92 299.22 383.64 295C411.73 291.15 411.75 338.24 439.99 340.8C481.22 344.55 470.59 275.63 509.09 260.42C552.05 243.45 594.14 314.24 625.66 280.47C631.71 274 638.28 261.63 638.28 261.63" stroke="url(#paint_linear_735_1995_0)" stroke-opacity="1.000000" stroke-width="1.000000"/>
	</g>
	<g opacity="0.828283">
		<path id="Vector 2" d="M339.74 365.4C357.62 340.07 354.54 301.52 385.52 300.54C413.87 299.65 408.96 346.48 436.78 351.99C477.39 360.02 474.03 290.37 513.9 279.27C558.41 266.88 592.87 341.68 627.74 311.4C634.43 305.59 642.26 293.97 642.26 293.97" stroke="url(#paint_linear_735_1996_0)" stroke-opacity="1.000000" stroke-width="1.000000"/>
	</g>
	<g opacity="0.838384">
		<path id="Vector 2" d="M334.48 365.93C354.9 342.61 355.86 303.95 386.78 306.22C415.07 308.29 405.29 354.35 432.38 362.73C471.93 374.97 475.87 305.35 516.69 298.47C562.24 290.81 588.69 368.8 626.54 342.33C633.8 337.25 642.8 326.52 642.8 326.52" stroke="url(#paint_linear_735_1997_0)" stroke-opacity="1.000000" stroke-width="1.000000"/>
	</g>
	<g opacity="0.848485">
		<path id="Vector 2" d="M329.15 365.86C351.9 344.81 356.9 306.46 387.41 311.95C415.32 316.96 400.78 361.75 426.85 372.92C464.9 389.23 476.09 320.39 517.41 317.83C563.51 314.96 581.67 395.3 622.08 372.92C629.83 368.63 639.9 358.9 639.9 358.9" stroke="url(#paint_linear_735_1998_0)" stroke-opacity="1.000000" stroke-width="1.000000"/>
	</g>
	<g opacity="0.858586">
		<path id="Vector 2" d="M323.82 365.2C348.65 346.64 357.62 309.03 387.4 317.67C414.63 325.58 395.49 368.6 420.25 382.44C456.39 402.63 474.71 335.34 516.07 337.11C562.22 339.08 571.88 420.87 614.41 402.84C622.56 399.39 633.6 390.76 633.6 390.76" stroke="url(#paint_linear_735_1999_0)" stroke-opacity="1.000000" stroke-width="1.000000"/>
	</g>
	<g opacity="0.868687">
		<path id="Vector 2" d="M318.55 363.95C345.18 348.09 358.04 311.62 386.75 323.32C413.01 334.03 389.48 374.82 412.65 391.17C446.48 415.03 471.74 350.03 512.69 356.1C558.38 362.89 559.43 445.24 603.62 431.76C612.09 429.17 623.96 421.75 623.96 421.75" stroke="url(#paint_linear_735_2000_0)" stroke-opacity="1.000000" stroke-width="1.000000"/>
	</g>
	<g opacity="0.878788">
		<path id="Vector 2" d="M313.41 362.11C341.55 349.12 358.15 314.19 385.48 328.84C410.48 342.23 382.81 380.34 404.15 399.02C435.3 426.28 467.21 364.28 507.3 374.6C552.03 386.13 544.47 468.14 589.82 459.35C598.52 457.66 611.11 451.52 611.11 451.52" stroke="url(#paint_linear_735_2001_0)" stroke-opacity="1.000000" stroke-width="1.000000"/>
	</g>
	<g opacity="0.888889">
		<path id="Vector 2" d="M308.45 359.71C337.8 349.73 357.96 316.73 383.6 334.15C407.06 350.09 375.57 385.09 394.84 405.9C422.96 436.27 461.19 377.94 499.97 392.4C543.26 408.53 527.17 489.31 573.19 485.3C582.01 484.54 595.17 479.74 595.17 479.74" stroke="url(#paint_linear_735_2002_0)" stroke-opacity="1.000000" stroke-width="1.000000"/>
	</g>
	<g opacity="0.898990">
		<path id="Vector 2" d="M303.73 356.76C333.96 349.9 357.46 319.19 381.15 339.2C402.81 357.5 367.83 389.02 384.82 411.72C409.62 444.87 453.73 390.85 490.79 409.29C532.15 429.86 507.71 508.51 553.89 509.34C562.75 509.5 576.34 506.11 576.34 506.11" stroke="url(#paint_linear_735_2003_0)" stroke-opacity="1.000000" stroke-width="1.000000"/>
	</g>
	<g opacity="0.909091">
		<path id="Vector 2" d="M299.31 353.29C330.1 349.63 356.68 321.55 378.14 343.92C397.77 364.38 359.69 392.07 374.21 416.43C395.41 451.99 444.92 402.88 479.86 425.09C518.84 449.87 486.31 525.53 532.15 531.19C540.94 532.27 554.82 530.32 554.82 530.32" stroke="url(#paint_linear_735_2004_0)" stroke-opacity="1.000000" stroke-width="1.000000"/>
	</g>
	<g opacity="0.919192">
		<path id="Vector 2" d="M295.25 349.35C326.24 348.92 355.62 323.77 374.62 348.26C392.01 370.67 351.24 394.22 363.13 419.97C380.5 457.54 434.88 413.88 467.3 439.62C503.48 468.34 463.21 540.19 508.22 550.6C516.84 552.6 530.84 552.1 530.84 552.1" stroke="url(#paint_linear_735_2005_0)" stroke-opacity="1.000000" stroke-width="1.000000"/>
	</g>
	<g opacity="0.929293">
		<path id="Vector 2" d="M291.58 344.95C322.45 347.77 354.29 325.83 370.63 352.17C385.58 376.27 342.57 395.44 351.71 422.28C365.06 461.47 423.7 423.73 453.25 452.72C486.23 485.06 438.68 552.31 482.35 567.37C490.72 570.26 504.69 571.23 504.69 571.23" stroke="url(#paint_linear_735_2006_0)" stroke-opacity="1.000000" stroke-width="1.000000"/>
	</g>
	<g opacity="0.939394">
		<path id="Vector 2" d="M288.35 340.16C318.76 346.19 352.72 327.7 366.22 355.6C378.57 381.14 333.79 395.7 340.07 423.36C349.25 463.72 411.51 432.32 437.88 464.23C467.29 499.85 412.97 561.76 454.83 581.3C462.85 585.05 476.65 587.47 476.65 587.47" stroke="url(#paint_linear_735_2007_0)" stroke-opacity="1.000000" stroke-width="1.000000"/>
	</g>
	<g opacity="0.949495">
		<path id="Vector 2" d="M285.61 335.02C315.22 344.2 350.93 329.35 361.44 358.52C371.05 385.2 324.99 395 328.35 423.17C333.26 464.27 398.46 439.55 421.35 474.04C446.88 512.54 386.38 568.43 425.97 592.24C433.56 596.8 447.02 600.66 447.02 600.66" stroke="url(#paint_linear_735_2008_0)" stroke-opacity="1.000000" stroke-width="1.000000"/>
	</g>
	<g opacity="0.959596">
		<path id="Vector 2" d="M283.39 329.58C311.88 341.8 348.94 330.77 356.34 360.87C363.11 388.41 316.28 393.35 316.68 421.71C317.26 463.1 384.69 445.33 403.84 482.03C425.21 522.98 359.21 572.24 396.09 600.06C403.16 605.39 416.15 610.64 416.15 610.64" stroke="url(#paint_linear_735_2009_0)" stroke-opacity="1.000000" stroke-width="1.000000"/>
	</g>
	<g opacity="0.969697">
		<path id="Vector 2" d="M281.71 323.9C308.76 339.03 346.78 331.93 350.99 362.65C354.84 390.74 307.76 390.76 305.19 419C301.44 460.23 370.36 449.6 385.57 488.1C402.54 531.07 331.75 573.15 365.52 604.68C371.99 610.72 384.36 617.29 384.36 617.29" stroke="url(#paint_linear_735_2010_0)" stroke-opacity="1.000000" stroke-width="1.000000"/>
	</g>
	<g opacity="0.979798">
		<path id="Vector 2" d="M280.59 318.03C305.92 335.91 344.47 332.82 345.45 363.81C346.34 392.16 299.51 387.25 294 415.07C285.97 455.68 355.62 452.31 366.72 492.19C379.11 536.69 304.31 571.15 334.59 606.03C340.4 612.72 352.02 620.55 352.02 620.55" stroke="url(#paint_linear_735_2011_0)" stroke-opacity="1.000000" stroke-width="1.000000"/>
	</g>
	<g opacity="0.989899">
		<path id="Vector 2" d="M280.06 312.04C303.38 332.47 342.04 333.43 339.78 364.35C337.7 392.63 291.64 382.85 283.26 409.95C271.02 449.49 340.64 453.43 347.52 494.25C355.18 539.8 277.19 566.25 303.66 604.11C308.74 611.36 319.47 620.37 319.47 620.37" stroke="url(#paint_linear_735_2012_0)" stroke-opacity="1.000000" stroke-width="1.000000"/>
	</g>
	<path id="Vector 2" d="M280.13 305.99C301.18 328.74 339.53 333.74 334.04 364.25C329.03 392.16 284.24 377.63 273.07 403.69C256.76 441.74 325.6 452.93 328.16 494.25C331.03 540.35 250.69 558.51 273.07 598.92C277.36 606.67 287.09 616.74 287.09 616.74" stroke="url(#paint_linear_735_2013_0)" stroke-opacity="1.000000" stroke-width="1.000000"/>
</svg>
