<svg width="910.000000" height="906.000000" viewBox="0 0 910 906" fill="none" xmlns="http://www.w3.org/2000/svg" xmlns:xlink="http://www.w3.org/1999/xlink">
	<desc>
			Created with Pixso.
	</desc>
	<defs>
		<linearGradient x1="513.877563" y1="212.763489" x2="513.877563" y2="905.345703" id="paint_linear_823_6410_0" gradientUnits="userSpaceOnUse">
			<stop stop-color="#3300FF"/>
			<stop offset="1.000000" stop-color="#FF06F5"/>
		</linearGradient>
		<linearGradient x1="511.230377" y1="210.116028" x2="511.230377" y2="902.698242" id="paint_linear_823_6411_0" gradientUnits="userSpaceOnUse">
			<stop stop-color="#3300FF"/>
			<stop offset="1.000000" stop-color="#FF06F5"/>
		</linearGradient>
		<linearGradient x1="508.583160" y1="207.469543" x2="508.583160" y2="900.051758" id="paint_linear_823_6412_0" gradientUnits="userSpaceOnUse">
			<stop stop-color="#3300FF"/>
			<stop offset="1.000000" stop-color="#FF06F5"/>
		</linearGradient>
		<linearGradient x1="505.936188" y1="204.822083" x2="505.936188" y2="897.404297" id="paint_linear_823_6413_0" gradientUnits="userSpaceOnUse">
			<stop stop-color="#3300FF"/>
			<stop offset="1.000000" stop-color="#FF06F5"/>
		</linearGradient>
		<linearGradient x1="503.289215" y1="202.174622" x2="503.289215" y2="894.756836" id="paint_linear_823_6414_0" gradientUnits="userSpaceOnUse">
			<stop stop-color="#3300FF"/>
			<stop offset="1.000000" stop-color="#FF06F5"/>
		</linearGradient>
		<linearGradient x1="500.641754" y1="199.528137" x2="500.641754" y2="892.110352" id="paint_linear_823_6415_0" gradientUnits="userSpaceOnUse">
			<stop stop-color="#3300FF"/>
			<stop offset="1.000000" stop-color="#FF06F5"/>
		</linearGradient>
		<linearGradient x1="497.994781" y1="196.880676" x2="497.994781" y2="889.462891" id="paint_linear_823_6416_0" gradientUnits="userSpaceOnUse">
			<stop stop-color="#3300FF"/>
			<stop offset="1.000000" stop-color="#FF06F5"/>
		</linearGradient>
		<linearGradient x1="495.347321" y1="194.234192" x2="495.347321" y2="886.816406" id="paint_linear_823_6417_0" gradientUnits="userSpaceOnUse">
			<stop stop-color="#3300FF"/>
			<stop offset="1.000000" stop-color="#FF06F5"/>
		</linearGradient>
		<linearGradient x1="492.700348" y1="191.586731" x2="492.700348" y2="884.168945" id="paint_linear_823_6418_0" gradientUnits="userSpaceOnUse">
			<stop stop-color="#3300FF"/>
			<stop offset="1.000000" stop-color="#FF06F5"/>
		</linearGradient>
		<linearGradient x1="490.053375" y1="188.939270" x2="490.053375" y2="881.521484" id="paint_linear_823_6419_0" gradientUnits="userSpaceOnUse">
			<stop stop-color="#3300FF"/>
			<stop offset="1.000000" stop-color="#FF06F5"/>
		</linearGradient>
		<linearGradient x1="487.406403" y1="186.292786" x2="487.406403" y2="878.875000" id="paint_linear_823_6420_0" gradientUnits="userSpaceOnUse">
			<stop stop-color="#3300FF"/>
			<stop offset="1.000000" stop-color="#FF06F5"/>
		</linearGradient>
		<linearGradient x1="484.759186" y1="183.645325" x2="484.759186" y2="876.227539" id="paint_linear_823_6421_0" gradientUnits="userSpaceOnUse">
			<stop stop-color="#3300FF"/>
			<stop offset="1.000000" stop-color="#FF06F5"/>
		</linearGradient>
		<linearGradient x1="482.112213" y1="180.997864" x2="482.112213" y2="873.580078" id="paint_linear_823_6422_0" gradientUnits="userSpaceOnUse">
			<stop stop-color="#3300FF"/>
			<stop offset="1.000000" stop-color="#FF06F5"/>
		</linearGradient>
		<linearGradient x1="479.464996" y1="178.351379" x2="479.464996" y2="870.933594" id="paint_linear_823_6423_0" gradientUnits="userSpaceOnUse">
			<stop stop-color="#3300FF"/>
			<stop offset="1.000000" stop-color="#FF06F5"/>
		</linearGradient>
		<linearGradient x1="476.818024" y1="175.703918" x2="476.818024" y2="868.286133" id="paint_linear_823_6424_0" gradientUnits="userSpaceOnUse">
			<stop stop-color="#3300FF"/>
			<stop offset="1.000000" stop-color="#FF06F5"/>
		</linearGradient>
		<linearGradient x1="474.170807" y1="173.056458" x2="474.170807" y2="865.638672" id="paint_linear_823_6425_0" gradientUnits="userSpaceOnUse">
			<stop stop-color="#3300FF"/>
			<stop offset="1.000000" stop-color="#FF06F5"/>
		</linearGradient>
		<linearGradient x1="471.523834" y1="170.409973" x2="471.523834" y2="862.992188" id="paint_linear_823_6426_0" gradientUnits="userSpaceOnUse">
			<stop stop-color="#3300FF"/>
			<stop offset="1.000000" stop-color="#FF06F5"/>
		</linearGradient>
		<linearGradient x1="468.876617" y1="167.762512" x2="468.876617" y2="860.344727" id="paint_linear_823_6427_0" gradientUnits="userSpaceOnUse">
			<stop stop-color="#3300FF"/>
			<stop offset="1.000000" stop-color="#FF06F5"/>
		</linearGradient>
		<linearGradient x1="466.229645" y1="165.115051" x2="466.229645" y2="857.697266" id="paint_linear_823_6428_0" gradientUnits="userSpaceOnUse">
			<stop stop-color="#3300FF"/>
			<stop offset="1.000000" stop-color="#FF06F5"/>
		</linearGradient>
		<linearGradient x1="463.582672" y1="162.468567" x2="463.582672" y2="855.050781" id="paint_linear_823_6429_0" gradientUnits="userSpaceOnUse">
			<stop stop-color="#3300FF"/>
			<stop offset="1.000000" stop-color="#FF06F5"/>
		</linearGradient>
		<linearGradient x1="460.935211" y1="159.821106" x2="460.935211" y2="852.403320" id="paint_linear_823_6430_0" gradientUnits="userSpaceOnUse">
			<stop stop-color="#3300FF"/>
			<stop offset="1.000000" stop-color="#FF06F5"/>
		</linearGradient>
		<linearGradient x1="458.288239" y1="157.174622" x2="458.288239" y2="849.756836" id="paint_linear_823_6431_0" gradientUnits="userSpaceOnUse">
			<stop stop-color="#3300FF"/>
			<stop offset="1.000000" stop-color="#FF06F5"/>
		</linearGradient>
		<linearGradient x1="455.641266" y1="154.527161" x2="455.641266" y2="847.109375" id="paint_linear_823_6432_0" gradientUnits="userSpaceOnUse">
			<stop stop-color="#3300FF"/>
			<stop offset="1.000000" stop-color="#FF06F5"/>
		</linearGradient>
		<linearGradient x1="452.993805" y1="151.879700" x2="452.993805" y2="844.461914" id="paint_linear_823_6433_0" gradientUnits="userSpaceOnUse">
			<stop stop-color="#3300FF"/>
			<stop offset="1.000000" stop-color="#FF06F5"/>
		</linearGradient>
		<linearGradient x1="450.346832" y1="149.233215" x2="450.346832" y2="841.815430" id="paint_linear_823_6434_0" gradientUnits="userSpaceOnUse">
			<stop stop-color="#3300FF"/>
			<stop offset="1.000000" stop-color="#FF06F5"/>
		</linearGradient>
		<linearGradient x1="447.699860" y1="146.585754" x2="447.699860" y2="839.167969" id="paint_linear_823_6435_0" gradientUnits="userSpaceOnUse">
			<stop stop-color="#3300FF"/>
			<stop offset="1.000000" stop-color="#FF06F5"/>
		</linearGradient>
		<linearGradient x1="445.052399" y1="143.938293" x2="445.052399" y2="836.520508" id="paint_linear_823_6436_0" gradientUnits="userSpaceOnUse">
			<stop stop-color="#3300FF"/>
			<stop offset="1.000000" stop-color="#FF06F5"/>
		</linearGradient>
		<linearGradient x1="442.405426" y1="141.291809" x2="442.405426" y2="833.874023" id="paint_linear_823_6437_0" gradientUnits="userSpaceOnUse">
			<stop stop-color="#3300FF"/>
			<stop offset="1.000000" stop-color="#FF06F5"/>
		</linearGradient>
		<linearGradient x1="439.758453" y1="138.644348" x2="439.758453" y2="831.226562" id="paint_linear_823_6438_0" gradientUnits="userSpaceOnUse">
			<stop stop-color="#3300FF"/>
			<stop offset="1.000000" stop-color="#FF06F5"/>
		</linearGradient>
		<linearGradient x1="437.111237" y1="135.996887" x2="437.111237" y2="828.579102" id="paint_linear_823_6439_0" gradientUnits="userSpaceOnUse">
			<stop stop-color="#3300FF"/>
			<stop offset="1.000000" stop-color="#FF06F5"/>
		</linearGradient>
		<linearGradient x1="434.464264" y1="133.350403" x2="434.464264" y2="825.932617" id="paint_linear_823_6440_0" gradientUnits="userSpaceOnUse">
			<stop stop-color="#3300FF"/>
			<stop offset="1.000000" stop-color="#FF06F5"/>
		</linearGradient>
		<linearGradient x1="431.817291" y1="130.702942" x2="431.817291" y2="823.285156" id="paint_linear_823_6441_0" gradientUnits="userSpaceOnUse">
			<stop stop-color="#3300FF"/>
			<stop offset="1.000000" stop-color="#FF06F5"/>
		</linearGradient>
		<linearGradient x1="429.170074" y1="128.055481" x2="429.170074" y2="820.637695" id="paint_linear_823_6442_0" gradientUnits="userSpaceOnUse">
			<stop stop-color="#3300FF"/>
			<stop offset="1.000000" stop-color="#FF06F5"/>
		</linearGradient>
		<linearGradient x1="426.523102" y1="125.409004" x2="426.523102" y2="817.991211" id="paint_linear_823_6443_0" gradientUnits="userSpaceOnUse">
			<stop stop-color="#3300FF"/>
			<stop offset="1.000000" stop-color="#FF06F5"/>
		</linearGradient>
		<linearGradient x1="423.875885" y1="122.761543" x2="423.875885" y2="815.343750" id="paint_linear_823_6444_0" gradientUnits="userSpaceOnUse">
			<stop stop-color="#3300FF"/>
			<stop offset="1.000000" stop-color="#FF06F5"/>
		</linearGradient>
		<linearGradient x1="421.228668" y1="120.115059" x2="421.228668" y2="812.697266" id="paint_linear_823_6445_0" gradientUnits="userSpaceOnUse">
			<stop stop-color="#3300FF"/>
			<stop offset="1.000000" stop-color="#FF06F5"/>
		</linearGradient>
		<linearGradient x1="418.581696" y1="117.467598" x2="418.581696" y2="810.049805" id="paint_linear_823_6446_0" gradientUnits="userSpaceOnUse">
			<stop stop-color="#3300FF"/>
			<stop offset="1.000000" stop-color="#FF06F5"/>
		</linearGradient>
		<linearGradient x1="415.934723" y1="114.820137" x2="415.934723" y2="807.402344" id="paint_linear_823_6447_0" gradientUnits="userSpaceOnUse">
			<stop stop-color="#3300FF"/>
			<stop offset="1.000000" stop-color="#FF06F5"/>
		</linearGradient>
		<linearGradient x1="413.287262" y1="112.173653" x2="413.287262" y2="804.755859" id="paint_linear_823_6448_0" gradientUnits="userSpaceOnUse">
			<stop stop-color="#3300FF"/>
			<stop offset="1.000000" stop-color="#FF06F5"/>
		</linearGradient>
		<linearGradient x1="410.640289" y1="109.526192" x2="410.640289" y2="802.108398" id="paint_linear_823_6449_0" gradientUnits="userSpaceOnUse">
			<stop stop-color="#3300FF"/>
			<stop offset="1.000000" stop-color="#FF06F5"/>
		</linearGradient>
	</defs>
	<g opacity="0.000000">
		<path id="Vector 2" d="M142.74 306.04C145.65 106.1 449.79 111.27 638.41 177.66C774.83 225.67 924.64 287.41 908.41 431.12C896.25 538.85 797.85 559.82 717.82 632.96C596.14 744.18 507.07 981.56 376.34 881.13C311.48 831.3 290.83 771.66 290.98 689.87C291.07 638.21 324.76 613.8 325.39 562.15C326.89 439.31 140.95 428.88 142.74 306.04Z" stroke="url(#paint_linear_823_6410_0)" stroke-opacity="1.000000" stroke-width="1.000000"/>
	</g>
	<g opacity="0.025641">
		<path id="Vector 2" d="M140.09 303.39C143 103.46 447.14 108.62 635.76 175.01C772.18 223.03 921.99 284.76 905.77 428.47C893.6 536.2 795.2 557.17 715.17 630.31C593.49 741.53 504.43 978.91 373.7 878.48C308.84 828.65 288.18 769.02 288.33 687.22C288.42 635.57 322.11 611.15 322.74 559.5C324.24 436.67 138.3 426.23 140.09 303.39Z" stroke="url(#paint_linear_823_6411_0)" stroke-opacity="1.000000" stroke-width="1.000000"/>
	</g>
	<g opacity="0.051282">
		<path id="Vector 2" d="M137.44 300.75C140.35 100.81 444.5 105.97 633.11 172.36C769.53 220.38 919.34 282.11 903.12 425.82C890.96 533.55 792.55 554.53 712.53 627.67C590.84 738.88 501.78 976.26 371.05 875.83C306.19 826 285.54 766.37 285.68 684.58C285.77 632.92 319.46 608.51 320.09 556.86C321.6 434.02 135.66 423.58 137.44 300.75Z" stroke="url(#paint_linear_823_6412_0)" stroke-opacity="1.000000" stroke-width="1.000000"/>
	</g>
	<g opacity="0.076923">
		<path id="Vector 2" d="M134.8 298.1C137.71 98.16 441.85 103.33 630.47 169.72C766.89 217.73 916.7 279.47 900.47 423.18C888.31 530.9 789.9 551.88 709.88 625.02C588.2 736.23 499.13 973.61 368.4 873.18C303.54 823.36 282.89 763.72 283.03 681.93C283.13 630.27 316.82 605.86 317.45 554.21C318.95 431.37 133.01 420.93 134.8 298.1Z" stroke="url(#paint_linear_823_6413_0)" stroke-opacity="1.000000" stroke-width="1.000000"/>
	</g>
	<g opacity="0.102564">
		<path id="Vector 2" d="M132.15 295.45C135.06 95.52 439.2 100.68 627.82 167.07C764.24 215.09 914.05 276.82 897.82 420.53C885.66 528.26 787.26 549.23 707.23 622.37C585.55 733.59 496.48 970.97 365.76 870.54C300.9 820.71 280.24 761.08 280.39 679.28C280.48 627.63 314.17 603.21 314.8 551.56C316.3 428.72 130.36 418.29 132.15 295.45Z" stroke="url(#paint_linear_823_6414_0)" stroke-opacity="1.000000" stroke-width="1.000000"/>
	</g>
	<g opacity="0.128205">
		<path id="Vector 2" d="M129.5 292.81C132.41 92.87 436.56 98.03 625.17 164.42C761.59 212.44 911.4 274.17 895.18 417.88C883.01 525.61 784.61 546.59 704.59 619.72C582.9 730.94 493.84 968.32 363.11 867.89C298.25 818.06 277.6 758.43 277.74 676.64C277.83 624.98 311.52 600.57 312.15 548.91C313.65 426.08 127.71 415.64 129.5 292.81Z" stroke="url(#paint_linear_823_6415_0)" stroke-opacity="1.000000" stroke-width="1.000000"/>
	</g>
	<g opacity="0.153846">
		<path id="Vector 2" d="M126.86 290.16C129.76 90.22 433.91 95.39 622.53 161.77C758.94 209.79 908.76 271.52 892.53 415.24C880.37 522.96 781.96 543.94 701.94 617.08C580.25 728.29 491.19 965.67 360.46 865.24C295.6 815.41 274.95 755.78 275.09 673.99C275.18 622.33 308.87 597.92 309.51 546.27C311.01 423.43 125.07 412.99 126.86 290.16Z" stroke="url(#paint_linear_823_6416_0)" stroke-opacity="1.000000" stroke-width="1.000000"/>
	</g>
	<g opacity="0.179487">
		<path id="Vector 2" d="M124.21 287.51C127.12 87.58 431.26 92.74 619.88 159.13C756.3 207.14 906.11 268.88 889.88 412.59C877.72 520.32 779.32 541.29 699.29 614.43C577.61 725.65 488.54 963.03 357.81 862.6C292.95 812.77 272.3 753.14 272.45 671.34C272.54 619.69 306.23 595.27 306.86 543.62C308.36 420.78 122.42 410.35 124.21 287.51Z" stroke="url(#paint_linear_823_6417_0)" stroke-opacity="1.000000" stroke-width="1.000000"/>
	</g>
	<g opacity="0.205128">
		<path id="Vector 2" d="M121.56 284.87C124.47 84.93 428.61 90.09 617.23 156.48C753.65 204.5 903.46 266.23 887.24 409.94C875.07 517.67 776.67 538.64 696.64 611.78C574.96 723 485.9 960.38 355.17 859.95C290.31 810.12 269.65 750.49 269.8 668.7C269.89 617.04 303.58 592.63 304.21 540.97C305.71 418.14 119.77 407.7 121.56 284.87Z" stroke="url(#paint_linear_823_6418_0)" stroke-opacity="1.000000" stroke-width="1.000000"/>
	</g>
	<g opacity="0.230769">
		<path id="Vector 2" d="M118.91 282.22C121.82 82.28 425.97 87.44 614.58 153.83C751 201.85 900.81 263.58 884.59 407.29C872.43 515.02 774.02 536 694 609.14C572.31 720.35 483.25 957.73 352.52 857.3C287.66 807.47 267.01 747.84 267.15 666.05C267.24 614.39 300.93 589.98 301.56 538.33C303.07 415.49 117.13 405.05 118.91 282.22Z" stroke="url(#paint_linear_823_6419_0)" stroke-opacity="1.000000" stroke-width="1.000000"/>
	</g>
	<g opacity="0.256410">
		<path id="Vector 2" d="M116.27 279.57C119.18 79.63 423.32 84.8 611.94 151.19C748.36 199.2 898.17 260.94 881.94 404.65C869.78 512.38 771.37 533.35 691.35 606.49C569.67 717.7 480.6 955.09 349.87 854.66C285.01 804.83 264.36 745.19 264.5 663.4C264.6 611.74 298.29 587.33 298.92 535.68C300.42 412.84 114.48 402.4 116.27 279.57Z" stroke="url(#paint_linear_823_6420_0)" stroke-opacity="1.000000" stroke-width="1.000000"/>
	</g>
	<g opacity="0.282051">
		<path id="Vector 2" d="M113.62 276.92C116.53 76.99 420.67 82.15 609.29 148.54C745.71 196.56 895.52 258.29 879.29 402C867.13 509.73 768.73 530.7 688.7 603.84C567.02 715.06 477.95 952.44 347.23 852.01C282.37 802.18 261.71 742.55 261.86 660.75C261.95 609.1 295.64 584.68 296.27 533.03C297.77 410.19 111.83 399.76 113.62 276.92Z" stroke="url(#paint_linear_823_6421_0)" stroke-opacity="1.000000" stroke-width="1.000000"/>
	</g>
	<g opacity="0.307692">
		<path id="Vector 2" d="M110.97 274.28C113.88 74.34 418.03 79.5 606.64 145.89C743.06 193.91 892.87 255.64 876.65 399.35C864.49 507.08 766.08 528.06 686.06 601.19C564.37 712.41 475.31 949.79 344.58 849.36C279.72 799.53 259.07 739.9 259.21 658.11C259.3 606.45 292.99 582.04 293.62 530.38C295.12 407.55 109.19 397.11 110.97 274.28Z" stroke="url(#paint_linear_823_6422_0)" stroke-opacity="1.000000" stroke-width="1.000000"/>
	</g>
	<g opacity="0.333333">
		<path id="Vector 2" d="M108.33 271.63C111.23 71.69 415.38 76.86 604 143.25C740.42 191.26 890.23 253 874 396.71C861.84 504.43 763.43 525.41 683.41 598.55C561.72 709.76 472.66 947.14 341.93 846.71C277.07 796.89 256.42 737.25 256.56 655.46C256.65 603.8 290.34 579.39 290.98 527.74C292.48 404.9 106.54 394.46 108.33 271.63Z" stroke="url(#paint_linear_823_6423_0)" stroke-opacity="1.000000" stroke-width="1.000000"/>
	</g>
	<g opacity="0.358974">
		<path id="Vector 2" d="M105.68 268.98C108.59 69.04 412.73 74.21 601.35 140.6C737.77 188.61 887.58 250.35 871.35 394.06C859.19 501.79 760.79 522.76 680.76 595.9C559.08 707.12 470.01 944.5 339.29 844.07C274.42 794.24 253.77 734.6 253.92 652.81C254.01 601.15 287.7 576.74 288.33 525.09C289.83 402.25 103.89 391.82 105.68 268.98Z" stroke="url(#paint_linear_823_6424_0)" stroke-opacity="1.000000" stroke-width="1.000000"/>
	</g>
	<g opacity="0.384615">
		<path id="Vector 2" d="M103.03 266.34C105.94 66.4 410.09 71.56 598.7 137.95C735.12 185.97 884.93 247.7 868.71 391.41C856.54 499.14 758.14 520.11 678.11 593.25C556.43 704.47 467.37 941.85 336.64 841.42C271.78 791.59 251.12 731.96 251.27 650.17C251.36 598.51 285.05 574.1 285.68 522.44C287.18 399.61 101.24 389.17 103.03 266.34Z" stroke="url(#paint_linear_823_6425_0)" stroke-opacity="1.000000" stroke-width="1.000000"/>
	</g>
	<g opacity="0.410256">
		<path id="Vector 2" d="M100.38 263.69C103.29 63.75 407.44 68.91 596.05 135.3C732.47 183.32 882.28 245.05 866.06 388.77C853.9 496.49 755.49 517.47 675.47 590.61C553.78 701.82 464.72 939.2 333.99 838.77C269.13 788.94 248.48 729.31 248.62 647.52C248.71 595.86 282.4 571.45 283.03 519.8C284.54 396.96 98.6 386.52 100.38 263.69Z" stroke="url(#paint_linear_823_6426_0)" stroke-opacity="1.000000" stroke-width="1.000000"/>
	</g>
	<g opacity="0.435897">
		<path id="Vector 2" d="M97.74 261.04C100.65 61.1 404.79 66.27 593.41 132.66C729.83 180.67 879.64 242.41 863.41 386.12C851.25 493.85 752.84 514.82 672.82 587.96C551.14 699.17 462.07 936.56 331.34 836.13C266.48 786.3 245.83 726.66 245.97 644.87C246.07 593.21 279.76 568.8 280.39 517.15C281.89 394.31 95.95 383.87 97.74 261.04Z" stroke="url(#paint_linear_823_6427_0)" stroke-opacity="1.000000" stroke-width="1.000000"/>
	</g>
	<g opacity="0.461538">
		<path id="Vector 2" d="M95.09 258.39C98 58.46 402.14 63.62 590.76 130.01C727.18 178.03 876.99 239.76 860.77 383.47C848.6 491.2 750.2 512.17 670.17 585.31C548.49 696.53 459.43 933.91 328.7 833.48C263.84 783.65 243.18 724.02 243.33 642.22C243.42 590.57 277.11 566.15 277.74 514.5C279.24 391.66 93.3 381.23 95.09 258.39Z" stroke="url(#paint_linear_823_6428_0)" stroke-opacity="1.000000" stroke-width="1.000000"/>
	</g>
	<g opacity="0.487179">
		<path id="Vector 2" d="M92.44 255.75C95.35 55.81 399.5 60.97 588.11 127.36C724.53 175.38 874.34 237.11 858.12 380.82C845.96 488.55 747.55 509.53 667.53 582.67C545.84 693.88 456.78 931.26 326.05 830.83C261.19 781 240.54 721.37 240.68 639.58C240.77 587.92 274.46 563.51 275.09 511.85C276.59 389.02 90.66 378.58 92.44 255.75Z" stroke="url(#paint_linear_823_6429_0)" stroke-opacity="1.000000" stroke-width="1.000000"/>
	</g>
	<g opacity="0.512821">
		<path id="Vector 2" d="M89.8 253.1C92.7 53.16 396.85 58.33 585.47 124.72C721.89 172.73 871.7 234.47 855.47 378.18C843.31 485.9 744.9 506.88 664.88 580.02C543.19 691.23 454.13 928.61 323.4 828.18C258.54 778.35 237.89 718.72 238.03 636.93C238.12 585.27 271.81 560.86 272.45 509.21C273.95 386.37 88.01 375.93 89.8 253.1Z" stroke="url(#paint_linear_823_6430_0)" stroke-opacity="1.000000" stroke-width="1.000000"/>
	</g>
	<g opacity="0.538462">
		<path id="Vector 2" d="M87.15 250.45C90.06 50.52 394.2 55.68 582.82 122.07C719.24 170.09 869.05 231.82 852.82 375.53C840.66 483.26 742.26 504.23 662.23 577.37C540.55 688.59 451.48 925.97 320.76 825.54C255.89 775.71 235.24 716.08 235.39 634.28C235.48 582.63 269.17 558.21 269.8 506.56C271.3 383.72 85.36 373.29 87.15 250.45Z" stroke="url(#paint_linear_823_6431_0)" stroke-opacity="1.000000" stroke-width="1.000000"/>
	</g>
	<g opacity="0.564103">
		<path id="Vector 2" d="M84.5 247.81C87.41 47.87 391.56 53.03 580.17 119.42C716.59 167.44 866.4 229.17 850.18 372.88C838.01 480.61 739.61 501.58 659.59 574.72C537.9 685.94 448.84 923.32 318.11 822.89C253.25 773.06 232.6 713.43 232.74 631.64C232.83 579.98 266.52 555.57 267.15 503.91C268.65 381.08 82.71 370.64 84.5 247.81Z" stroke="url(#paint_linear_823_6432_0)" stroke-opacity="1.000000" stroke-width="1.000000"/>
	</g>
	<g opacity="0.589744">
		<path id="Vector 2" d="M81.85 245.16C84.76 45.22 388.91 50.38 577.52 116.77C713.94 164.79 863.75 226.52 847.53 370.23C835.37 477.96 736.96 498.94 656.94 572.08C535.25 683.29 446.19 920.67 315.46 820.24C250.6 770.41 229.95 710.78 230.09 628.99C230.18 577.33 263.87 552.92 264.5 501.27C266.01 378.43 80.07 367.99 81.85 245.16Z" stroke="url(#paint_linear_823_6433_0)" stroke-opacity="1.000000" stroke-width="1.000000"/>
	</g>
	<g opacity="0.615385">
		<path id="Vector 2" d="M79.21 242.51C82.12 42.57 386.26 47.74 574.88 114.13C711.3 162.14 861.11 223.88 844.88 367.59C832.72 475.32 734.32 496.29 654.29 569.43C532.61 680.64 443.54 918.03 312.81 817.6C247.95 767.77 227.3 708.13 227.44 626.34C227.54 574.68 261.23 550.27 261.86 498.62C263.36 375.78 77.42 365.35 79.21 242.51Z" stroke="url(#paint_linear_823_6434_0)" stroke-opacity="1.000000" stroke-width="1.000000"/>
	</g>
	<g opacity="0.641026">
		<path id="Vector 2" d="M76.56 239.86C79.47 39.93 383.61 45.09 572.23 111.48C708.65 159.5 858.46 221.23 842.24 364.94C830.07 472.67 731.67 493.64 651.64 566.78C529.96 678 440.9 915.38 310.17 814.95C245.31 765.12 224.65 705.49 224.8 623.69C224.89 572.04 258.58 547.63 259.21 495.97C260.71 373.14 74.77 362.7 76.56 239.86Z" stroke="url(#paint_linear_823_6435_0)" stroke-opacity="1.000000" stroke-width="1.000000"/>
	</g>
	<g opacity="0.666667">
		<path id="Vector 2" d="M73.91 237.22C76.82 37.28 380.97 42.44 569.58 108.83C706 156.85 855.81 218.58 839.59 362.29C827.43 470.02 729.02 491 649 564.14C527.31 675.35 438.25 912.73 307.52 812.3C242.66 762.47 222.01 702.84 222.15 621.05C222.24 569.39 255.93 544.98 256.56 493.32C258.06 370.49 72.12 360.05 73.91 237.22Z" stroke="url(#paint_linear_823_6436_0)" stroke-opacity="1.000000" stroke-width="1.000000"/>
	</g>
	<g opacity="0.692308">
		<path id="Vector 2" d="M71.27 234.57C74.17 34.63 378.32 39.8 566.94 106.19C703.36 154.2 853.17 215.94 836.94 359.65C824.78 467.37 726.37 488.35 646.35 561.49C524.66 672.7 435.6 910.08 304.87 809.65C240.01 759.83 219.36 700.19 219.5 618.4C219.59 566.74 253.28 542.33 253.92 490.68C255.42 367.84 69.48 357.4 71.27 234.57Z" stroke="url(#paint_linear_823_6437_0)" stroke-opacity="1.000000" stroke-width="1.000000"/>
	</g>
	<g opacity="0.717949">
		<path id="Vector 2" d="M68.62 231.92C71.53 31.99 375.67 37.15 564.29 103.54C700.71 151.56 850.52 213.29 834.29 357C822.13 464.73 723.73 485.7 643.7 558.84C522.02 670.06 432.95 907.44 302.23 807.01C237.36 757.18 216.71 697.55 216.86 615.75C216.95 564.1 250.64 539.68 251.27 488.03C252.77 365.19 66.83 354.76 68.62 231.92Z" stroke="url(#paint_linear_823_6438_0)" stroke-opacity="1.000000" stroke-width="1.000000"/>
	</g>
	<g opacity="0.743590">
		<path id="Vector 2" d="M65.97 229.28C68.88 29.34 373.03 34.5 561.64 100.89C698.06 148.91 847.87 210.64 831.65 354.35C819.48 462.08 721.08 483.05 641.06 556.19C519.37 667.41 430.31 904.79 299.58 804.36C234.72 754.53 214.07 694.9 214.21 613.11C214.3 561.45 247.99 537.04 248.62 485.38C250.12 362.55 64.18 352.11 65.97 229.28Z" stroke="url(#paint_linear_823_6439_0)" stroke-opacity="1.000000" stroke-width="1.000000"/>
	</g>
	<g opacity="0.769231">
		<path id="Vector 2" d="M63.32 226.63C66.23 26.69 370.38 31.86 559 98.24C695.41 146.26 845.23 207.99 829 351.71C816.84 459.43 718.43 480.41 638.41 553.55C516.72 664.76 427.66 902.14 296.93 801.71C232.07 751.88 211.42 692.25 211.56 610.46C211.65 558.8 245.34 534.39 245.97 482.74C247.48 359.9 61.54 349.46 63.32 226.63Z" stroke="url(#paint_linear_823_6440_0)" stroke-opacity="1.000000" stroke-width="1.000000"/>
	</g>
	<g opacity="0.794872">
		<path id="Vector 2" d="M60.68 223.98C63.59 24.04 367.73 29.21 556.35 95.6C692.77 143.61 842.58 205.35 826.35 349.06C814.19 456.79 715.79 477.76 635.76 550.9C514.08 662.11 425.01 899.5 294.28 799.07C229.42 749.24 208.77 689.6 208.92 607.81C209.01 556.15 242.7 531.74 243.33 480.09C244.83 357.25 58.89 346.81 60.68 223.98Z" stroke="url(#paint_linear_823_6441_0)" stroke-opacity="1.000000" stroke-width="1.000000"/>
	</g>
	<g opacity="0.820513">
		<path id="Vector 2" d="M58.03 221.33C60.94 21.4 365.08 26.56 553.7 92.95C690.12 140.97 839.93 202.7 823.71 346.41C811.54 454.14 713.14 475.11 633.11 548.25C511.43 659.47 422.37 896.85 291.64 796.42C226.78 746.59 206.12 686.96 206.27 605.16C206.36 553.51 240.05 529.09 240.68 477.44C242.18 354.6 56.24 344.17 58.03 221.33Z" stroke="url(#paint_linear_823_6442_0)" stroke-opacity="1.000000" stroke-width="1.000000"/>
	</g>
	<g opacity="0.846154">
		<path id="Vector 2" d="M55.38 218.69C58.29 18.75 362.44 23.91 551.05 90.3C687.47 138.32 837.28 200.05 821.06 343.76C808.9 451.49 710.49 472.47 630.47 545.61C508.78 656.82 419.72 894.2 288.99 793.77C224.13 743.94 203.48 684.31 203.62 602.52C203.71 550.86 237.4 526.45 238.03 474.8C239.54 351.96 53.6 341.52 55.38 218.69Z" stroke="url(#paint_linear_823_6443_0)" stroke-opacity="1.000000" stroke-width="1.000000"/>
	</g>
	<g opacity="0.871795">
		<path id="Vector 2" d="M52.74 216.04C55.65 16.1 359.79 21.27 548.41 87.66C684.83 135.67 834.64 197.41 818.41 341.12C806.25 448.84 707.84 469.82 627.82 542.96C506.13 654.17 417.07 891.55 286.34 791.12C221.48 741.3 200.83 681.66 200.97 599.87C201.07 548.21 234.76 523.8 235.39 472.15C236.89 349.31 50.95 338.87 52.74 216.04Z" stroke="url(#paint_linear_823_6444_0)" stroke-opacity="1.000000" stroke-width="1.000000"/>
	</g>
	<g opacity="0.897436">
		<path id="Vector 2" d="M50.09 213.39C53 13.46 357.14 18.62 545.76 85.01C682.18 133.03 831.99 194.76 815.76 338.47C803.6 446.2 705.2 467.17 625.17 540.31C503.49 651.53 414.42 888.91 283.7 788.48C218.83 738.65 198.18 679.02 198.33 597.22C198.42 545.57 232.11 521.15 232.74 469.5C234.24 346.66 48.3 336.23 50.09 213.39Z" stroke="url(#paint_linear_823_6445_0)" stroke-opacity="1.000000" stroke-width="1.000000"/>
	</g>
	<g opacity="0.923077">
		<path id="Vector 2" d="M47.44 210.75C50.35 10.81 354.5 15.97 543.11 82.36C679.53 130.38 829.34 192.11 813.12 335.82C800.95 443.55 702.55 464.52 622.53 537.66C500.84 648.88 411.78 886.26 281.05 785.83C216.19 736 195.54 676.37 195.68 594.58C195.77 542.92 229.46 518.51 230.09 466.85C231.59 344.02 45.65 333.58 47.44 210.75Z" stroke="url(#paint_linear_823_6446_0)" stroke-opacity="1.000000" stroke-width="1.000000"/>
	</g>
	<g opacity="0.948718">
		<path id="Vector 2" d="M44.79 208.1C47.7 8.16 351.85 13.33 540.46 79.71C676.88 127.73 826.7 189.46 810.47 333.18C798.31 440.9 699.9 461.88 619.88 535.02C498.19 646.23 409.13 883.61 278.4 783.18C213.54 733.35 192.89 673.72 193.03 591.93C193.12 540.27 226.81 515.86 227.45 464.21C228.95 341.37 43.01 330.93 44.79 208.1Z" stroke="url(#paint_linear_823_6447_0)" stroke-opacity="1.000000" stroke-width="1.000000"/>
	</g>
	<g opacity="0.974359">
		<path id="Vector 2" d="M42.15 205.45C45.06 5.51 349.2 10.68 537.82 77.07C674.24 125.08 824.05 186.82 807.82 330.53C795.66 438.26 697.26 459.23 617.23 532.37C495.55 643.59 406.48 880.97 275.75 780.54C210.89 730.71 190.24 671.07 190.39 589.28C190.48 537.63 224.17 513.21 224.8 461.56C226.3 338.72 40.36 328.29 42.15 205.45Z" stroke="url(#paint_linear_823_6448_0)" stroke-opacity="1.000000" stroke-width="1.000000"/>
	</g>
	<path id="Vector 2" d="M39.5 202.81C42.41 2.87 346.55 8.03 535.17 74.42C671.59 122.44 821.4 184.17 805.18 327.88C793.01 435.61 694.61 456.58 614.58 529.72C492.9 640.94 403.84 878.32 273.11 777.89C208.25 728.06 187.59 668.43 187.74 586.64C187.83 534.98 221.52 510.57 222.15 458.91C223.65 336.08 37.71 325.64 39.5 202.81Z" stroke="url(#paint_linear_823_6449_0)" stroke-opacity="1.000000" stroke-width="1.000000"/>
</svg>
