<svg width="1920" height="1573" viewBox="0 0 1920 1573" fill="none" xmlns="http://www.w3.org/2000/svg">
<g clip-path="url(#clip0_609_11327)">
<path opacity="0.0416667" d="M440.528 789.344C301.728 895.885 33.2309 983.552 159.1 1096.72L233.952 1143.88C233.952 1143.88 367.99 938.614 505.499 830.274C642.72 722.162 782.599 702.702 926.112 598.124C1106.44 466.72 1232.17 254.562 1291.45 214.516C1350.73 174.471 1448.73 305.667 1443.25 111.973C1437.77 -81.7203 1299.87 150.869 1219.51 188.068C1000.94 289.239 1027.01 434.601 846.602 563.888C706.423 664.346 575.383 685.831 440.528 789.344Z" stroke="url(#paint0_linear_609_11327)"/>
<path opacity="0.0833333" d="M449.241 797.613C304.826 900.929 31.8029 982.43 151.541 1098.4L223.825 1147.23C223.825 1147.23 368.762 945.141 511.984 839.998C654.905 735.075 795.739 718.812 944.76 617.565C1132.01 490.347 1269.01 281.18 1330.4 242.509C1391.79 203.837 1482.7 337.184 1487.59 143.484C1492.48 -50.2165 1342.22 179.092 1259.92 214.438C1036.07 310.572 1054.34 456.438 867.129 581.54C721.661 678.745 589.553 697.234 449.241 797.613Z" stroke="url(#paint1_linear_609_11327)"/>
<path opacity="0.125" d="M457.386 806.111C307.532 906.076 30.3148 981.311 143.776 1099.93L213.404 1150.38C213.404 1150.38 369.064 951.716 517.823 849.898C666.27 748.293 807.889 735.246 962.235 637.453C1156.17 514.576 1304.29 308.656 1367.71 271.405C1431.12 234.155 1514.85 369.491 1530.1 176.02C1545.35 -17.4513 1382.91 208.297 1298.77 241.747C1069.91 332.726 1080.37 478.92 886.579 599.683C735.999 693.517 602.982 708.987 457.386 806.111Z" stroke="url(#paint2_linear_609_11327)"/>
<path opacity="0.166667" d="M464.958 814.823C309.847 911.316 28.7741 980.194 135.82 1101.33L202.707 1153.33C202.707 1153.33 368.9 958.329 523.015 859.96C676.808 761.796 819.038 751.981 978.522 657.762C1178.92 539.375 1337.96 336.953 1403.33 301.169C1468.7 265.385 1545.14 402.544 1570.72 209.538C1596.31 16.5323 1421.9 238.445 1336.02 269.959C1102.44 355.673 1105.07 502.015 904.933 618.292C749.425 708.642 615.661 721.073 464.958 814.823Z" stroke="url(#paint3_linear_609_11327)"/>
<path opacity="0.208333" d="M471.944 823.743C311.765 916.645 27.1787 979.082 127.679 1102.58L191.743 1156.07C191.743 1156.07 368.267 964.975 527.551 870.174C686.501 775.571 829.17 769.001 993.598 678.47C1200.2 564.717 1369.98 366.039 1437.22 331.765C1504.47 297.491 1573.52 436.307 1609.42 244.001C1645.32 51.6955 1459.14 269.502 1371.62 299.042C1133.6 379.385 1128.4 525.698 922.165 637.348C761.918 724.102 627.571 733.481 471.944 823.743Z" stroke="url(#paint4_linear_609_11327)"/>
<path opacity="0.25" d="M478.329 832.852C313.278 922.05 25.5246 977.97 119.357 1103.68L180.52 1158.6C180.52 1158.6 367.16 971.637 531.419 880.52C695.333 789.594 838.267 786.275 1007.44 699.543C1220 590.563 1400.3 395.872 1469.34 363.15C1538.38 330.428 1599.96 470.731 1646.13 279.36C1692.29 87.9884 1494.57 301.423 1405.53 328.953C1163.35 403.828 1150.33 549.934 938.248 656.821C773.458 739.874 638.69 746.188 478.329 832.852Z" stroke="url(#paint5_linear_609_11327)"/>
<path opacity="0.291667" d="M484.102 842.136C314.38 927.523 23.81 976.857 110.86 1104.63L169.048 1160.9C169.048 1160.9 365.576 978.306 534.609 890.984C703.288 803.845 846.312 803.783 1020.02 720.955C1238.29 616.881 1428.89 426.413 1499.64 395.282C1570.38 364.152 1624.42 505.772 1680.8 315.568C1737.17 125.365 1528.16 334.168 1437.7 359.654C1191.66 428.97 1170.83 574.69 953.158 676.683C784.025 755.934 649.002 759.176 484.102 842.136Z" stroke="url(#paint6_linear_609_11327)"/>
<path opacity="0.333333" d="M489.262 851.584C315.075 933.054 22.0426 975.744 102.205 1105.42L157.346 1162.98C157.346 1162.98 363.523 984.972 537.125 901.552C710.363 818.307 853.303 821.5 1031.34 742.678C1255.04 643.636 1455.71 457.624 1528.08 428.123C1600.45 398.622 1646.88 541.386 1713.4 352.582C1779.92 163.778 1559.86 367.695 1468.09 391.106C1218.49 454.778 1189.88 599.935 966.883 696.911C793.613 772.262 658.499 772.428 489.262 851.584Z" stroke="url(#paint7_linear_609_11327)"/>
<path opacity="0.375" d="M493.795 861.178C315.356 938.633 20.2186 974.625 93.3945 1106.04L145.423 1164.83C145.423 1164.83 360.997 991.623 538.956 912.206C716.542 832.955 859.224 839.401 1041.37 764.68C1270.23 670.792 1480.73 489.461 1554.64 461.626C1628.54 433.791 1667.31 577.525 1743.88 390.35C1820.46 203.175 1589.62 401.958 1496.66 423.265C1243.81 481.216 1207.45 625.634 979.4 717.473C802.205 788.834 667.164 785.924 493.795 861.178Z" stroke="url(#paint8_linear_609_11327)"/>
<path opacity="0.416667" d="M497.696 870.909C315.222 944.255 18.3383 973.505 84.4391 1106.51L133.291 1166.45C133.291 1166.45 358 998.251 540.099 922.934C721.816 847.774 864.067 857.465 1050.09 786.936C1283.84 698.315 1503.92 521.888 1579.27 495.752C1654.62 469.617 1685.67 614.146 1772.21 428.828C1858.75 243.51 1617.42 436.917 1523.37 456.095C1267.58 508.254 1223.51 651.756 990.693 738.347C809.788 805.63 674.985 799.648 497.696 870.909Z" stroke="url(#paint9_linear_609_11327)"/>
<path opacity="0.458333" d="M500.952 880.757C314.665 949.903 16.398 972.377 75.3431 1106.8L120.959 1167.82C120.959 1167.82 354.529 1004.84 540.546 933.715C726.174 862.739 867.819 875.662 1057.51 809.411C1295.85 726.166 1525.24 554.856 1601.94 530.452C1678.64 506.048 1701.93 651.196 1798.34 467.962C1894.74 284.727 1643.22 472.522 1548.2 489.547C1289.77 535.85 1238.05 678.261 1000.74 759.5C816.346 822.623 681.946 813.575 500.952 880.757Z" stroke="url(#paint10_linear_609_11327)"/>
<path opacity="0.5" d="M503.566 890.711C313.694 955.574 14.4059 971.243 66.1234 1106.93L108.447 1168.94C108.447 1168.94 350.594 1011.39 540.303 944.538C729.615 877.831 870.482 893.971 1063.6 832.079C1306.25 754.312 1544.66 588.329 1622.62 565.686C1700.58 543.043 1716.1 688.632 1822.25 507.705C1928.4 326.777 1666.97 508.73 1571.1 523.581C1310.35 563.973 1251.05 705.12 1009.54 780.906C821.878 839.793 688.044 827.691 503.566 890.711Z" stroke="url(#paint11_linear_609_11327)"/>
<path opacity="0.541667" d="M505.529 900.754C312.302 961.255 12.3584 970.101 56.7854 1106.88L95.7658 1169.82C95.7658 1169.82 346.194 1017.87 539.364 955.385C732.129 893.029 872.047 912.366 1068.36 854.909C1315.02 782.713 1562.17 622.259 1641.29 601.404C1720.41 580.55 1728.13 726.405 1843.9 548.003C1959.66 369.602 1688.66 545.494 1592.06 558.153C1329.3 592.584 1262.49 732.294 1017.07 802.536C826.371 857.115 693.265 841.972 505.529 900.754Z" stroke="url(#paint12_linear_609_11327)"/>
<path opacity="0.583333" d="M506.836 910.873C310.49 966.938 10.2561 968.95 47.3384 1106.66L82.928 1170.45C82.928 1170.45 341.333 1024.29 537.728 966.241C733.711 908.311 872.51 930.822 1071.77 877.869C1322.15 811.333 1577.73 656.603 1657.92 637.563C1738.11 618.523 1738.02 764.464 1863.26 588.807C1988.5 413.15 1708.26 582.765 1611.03 593.217C1346.6 621.645 1272.34 759.749 1023.32 824.36C829.818 874.564 697.603 856.401 506.836 910.873Z" stroke="url(#paint13_linear_609_11327)"/>
<path opacity="0.625" d="M507.48 921.051C308.255 972.612 8.09546 967.787 37.788 1106.26L69.9433 1170.82C69.9433 1170.82 336.01 1030.63 535.391 977.089C734.354 923.656 871.864 949.314 1073.84 900.929C1327.62 840.134 1591.32 691.317 1672.48 674.114C1753.64 656.911 1745.75 802.762 1880.31 630.063C2014.87 457.365 1725.72 620.496 1628 628.728C1362.2 651.118 1280.61 787.448 1028.27 846.35C832.207 892.118 701.045 870.956 507.48 921.051Z" stroke="url(#paint14_linear_609_11327)"/>
<path opacity="0.666667" d="M507.466 931.275C305.603 978.268 5.88501 966.613 28.1515 1105.68L56.8335 1170.93C56.8335 1170.93 330.238 1036.89 532.362 987.914C734.062 939.044 870.116 967.816 1074.56 924.06C1331.44 869.079 1602.94 726.357 1684.97 711.012C1767 695.667 1751.31 841.249 1895.02 671.719C2038.74 502.189 1741.04 658.638 1642.94 664.64C1376.11 680.966 1287.27 815.355 1031.94 868.476C833.543 909.753 703.592 885.617 507.466 931.275Z" stroke="url(#paint15_linear_609_11327)"/>
<path opacity="0.708333" d="M506.789 941.53C302.535 983.899 3.62346 965.427 18.4369 1104.91L43.6105 1170.78C43.6105 1170.78 324.019 1043.04 528.64 998.701C732.832 954.453 867.263 986.305 1073.92 947.23C1333.59 898.131 1612.56 761.677 1695.36 748.209C1778.16 734.741 1754.69 879.877 1907.39 713.723C2060.08 547.568 1754.2 697.144 1655.83 700.909C1388.29 711.149 1292.32 843.434 1034.3 890.71C833.819 927.444 705.239 900.365 506.789 941.53Z" stroke="url(#paint16_linear_609_11327)"/>
<path opacity="0.75" d="M505.445 951.8C299.049 989.493 1.30758 964.227 8.64978 1103.96L30.2844 1170.36C30.2844 1170.36 317.356 1049.09 524.224 1009.43C730.659 969.861 863.304 1004.75 1071.93 970.408C1334.06 927.251 1620.16 797.231 1703.63 785.656C1787.11 774.082 1755.89 918.595 1917.38 756.018C2078.87 593.441 1765.17 735.962 1666.66 737.485C1398.74 741.628 1295.74 871.647 1035.36 913.02C833.03 945.168 705.976 915.178 505.445 951.8Z" stroke="url(#paint17_linear_609_11327)"/>
<path opacity="0.791667" d="M503.432 962.066C295.145 995.038 -1.06375 963.008 -1.20167 1102.83L16.8676 1169.68C16.8676 1169.68 310.252 1055.01 519.116 1020.09C727.542 985.244 858.24 1023.14 1068.57 993.56C1332.86 956.398 1625.74 832.97 1709.78 823.303C1793.82 813.636 1754.89 957.351 1924.98 798.55C2095.07 639.748 1773.94 775.04 1675.41 774.32C1407.42 772.36 1297.54 899.955 1035.09 935.375C831.171 962.897 705.8 930.032 503.432 962.066Z" stroke="url(#paint18_linear_609_11327)"/>
<path opacity="0.833333" d="M500.757 972.321C290.833 1000.53 -3.48187 961.777 -11.0998 1101.51L3.38215 1168.73C3.38215 1168.73 302.722 1060.81 513.327 1030.67C723.49 1000.59 852.081 1041.43 1063.87 1016.66C1329.98 985.54 1629.29 868.855 1713.79 861.108C1798.3 853.36 1751.7 996.1 1930.18 841.268C2108.67 686.436 1780.49 814.334 1682.06 811.371C1414.35 803.312 1297.7 928.327 1033.52 957.751C828.252 980.613 704.715 944.914 500.757 972.321Z" stroke="url(#paint19_linear_609_11327)"/>
<path opacity="0.875" d="M497.417 982.543C286.112 1005.96 -5.94977 960.525 -21.0383 1100L-10.1614 1167.51C-10.1614 1167.51 294.769 1066.47 506.859 1041.14C718.503 1015.86 844.831 1059.61 1057.81 1039.68C1325.43 1014.63 1630.79 904.833 1715.66 899.014C1800.53 893.195 1746.33 1034.79 1932.99 884.113C2119.64 733.439 1784.83 853.788 1686.61 848.585C1419.49 834.436 1296.23 956.72 1030.64 980.111C824.27 998.286 702.718 959.796 497.417 982.543Z" stroke="url(#paint20_linear_609_11327)"/>
<path opacity="0.916667" d="M493.416 992.72C280.987 1011.31 -8.46648 959.256 -31.0073 1098.3L-23.7487 1166.02C-23.7487 1166.02 286.401 1071.99 499.717 1051.5C712.585 1031.05 836.495 1077.65 1050.41 1062.58C1319.21 1043.64 1630.26 940.861 1715.39 936.978C1800.52 933.094 1738.77 1073.37 1933.38 927.034C2127.98 780.701 1786.93 893.354 1689.05 885.919C1422.85 865.696 1293.12 985.099 1026.44 1002.43C819.227 1015.89 699.809 974.661 493.416 992.72Z" stroke="url(#paint21_linear_609_11327)"/>
<path opacity="0.958333" d="M488.752 1002.84C275.458 1016.58 -11.0348 957.966 -41.0005 1096.41L-37.369 1164.25C-37.369 1164.25 277.623 1077.34 491.904 1061.72C705.736 1046.14 827.078 1095.52 1041.67 1085.33C1311.31 1072.53 1627.68 976.891 1712.96 974.948C1798.25 973.005 1729.03 1111.79 1931.35 969.973C2133.66 828.16 1786.79 932.979 1689.37 923.32C1424.42 897.05 1288.38 1013.43 1020.93 1024.67C813.124 1033.41 695.985 989.487 488.752 1002.84Z" stroke="url(#paint22_linear_609_11327)"/>
<path d="M483.436 1012.88C269.537 1021.75 -13.646 956.655 -51 1094.33V1162.22C-51 1162.22 268.449 1082.53 483.436 1071.8C697.972 1061.09 816.597 1113.21 1031.61 1107.91C1301.77 1101.25 1623.06 1012.88 1708.39 1012.88C1793.73 1012.88 1717.13 1150 1926.91 1012.88C2136.69 875.756 1784.42 972.614 1687.58 960.743C1424.19 928.457 1282.01 1041.67 1014.13 1046.82C805.975 1050.82 691.257 1004.25 483.436 1012.88Z" stroke="url(#paint23_linear_609_11327)"/>
</g>
<defs>
<linearGradient id="paint0_linear_609_11327" x1="698.778" y1="539.84" x2="833.311" y2="738.991" gradientUnits="userSpaceOnUse">
<stop stop-color="#3300FF"/>
<stop offset="1" stop-color="#FF06F5"/>
</linearGradient>
<linearGradient id="paint1_linear_609_11327" x1="720.682" y1="554.14" x2="846.996" y2="754.647" gradientUnits="userSpaceOnUse">
<stop stop-color="#3300FF"/>
<stop offset="1" stop-color="#FF06F5"/>
</linearGradient>
<linearGradient id="paint2_linear_609_11327" x1="741.687" y1="568.966" x2="860.083" y2="770.532" gradientUnits="userSpaceOnUse">
<stop stop-color="#3300FF"/>
<stop offset="1" stop-color="#FF06F5"/>
</linearGradient>
<linearGradient id="paint3_linear_609_11327" x1="761.772" y1="584.296" x2="872.546" y2="786.664" gradientUnits="userSpaceOnUse">
<stop stop-color="#3300FF"/>
<stop offset="1" stop-color="#FF06F5"/>
</linearGradient>
<linearGradient id="paint4_linear_609_11327" x1="780.91" y1="600.113" x2="884.35" y2="803.066" gradientUnits="userSpaceOnUse">
<stop stop-color="#3300FF"/>
<stop offset="1" stop-color="#FF06F5"/>
</linearGradient>
<linearGradient id="paint5_linear_609_11327" x1="799.071" y1="616.392" x2="895.453" y2="819.746" gradientUnits="userSpaceOnUse">
<stop stop-color="#3300FF"/>
<stop offset="1" stop-color="#FF06F5"/>
</linearGradient>
<linearGradient id="paint6_linear_609_11327" x1="816.229" y1="633.111" x2="905.817" y2="836.711" gradientUnits="userSpaceOnUse">
<stop stop-color="#3300FF"/>
<stop offset="1" stop-color="#FF06F5"/>
</linearGradient>
<linearGradient id="paint7_linear_609_11327" x1="832.368" y1="650.247" x2="915.412" y2="853.969" gradientUnits="userSpaceOnUse">
<stop stop-color="#3300FF"/>
<stop offset="1" stop-color="#FF06F5"/>
</linearGradient>
<linearGradient id="paint8_linear_609_11327" x1="847.464" y1="667.776" x2="924.2" y2="871.516" gradientUnits="userSpaceOnUse">
<stop stop-color="#3300FF"/>
<stop offset="1" stop-color="#FF06F5"/>
</linearGradient>
<linearGradient id="paint9_linear_609_11327" x1="861.496" y1="685.676" x2="932.144" y2="889.354" gradientUnits="userSpaceOnUse">
<stop stop-color="#3300FF"/>
<stop offset="1" stop-color="#FF06F5"/>
</linearGradient>
<linearGradient id="paint10_linear_609_11327" x1="874.44" y1="703.919" x2="939.205" y2="907.472" gradientUnits="userSpaceOnUse">
<stop stop-color="#3300FF"/>
<stop offset="1" stop-color="#FF06F5"/>
</linearGradient>
<linearGradient id="paint11_linear_609_11327" x1="886.287" y1="722.484" x2="945.359" y2="925.867" gradientUnits="userSpaceOnUse">
<stop stop-color="#3300FF"/>
<stop offset="1" stop-color="#FF06F5"/>
</linearGradient>
<linearGradient id="paint12_linear_609_11327" x1="897.016" y1="741.344" x2="950.569" y2="944.525" gradientUnits="userSpaceOnUse">
<stop stop-color="#3300FF"/>
<stop offset="1" stop-color="#FF06F5"/>
</linearGradient>
<linearGradient id="paint13_linear_609_11327" x1="906.613" y1="760.472" x2="954.804" y2="963.433" gradientUnits="userSpaceOnUse">
<stop stop-color="#3300FF"/>
<stop offset="1" stop-color="#FF06F5"/>
</linearGradient>
<linearGradient id="paint14_linear_609_11327" x1="915.06" y1="779.844" x2="958.032" y2="982.577" gradientUnits="userSpaceOnUse">
<stop stop-color="#3300FF"/>
<stop offset="1" stop-color="#FF06F5"/>
</linearGradient>
<linearGradient id="paint15_linear_609_11327" x1="922.351" y1="799.433" x2="960.232" y2="1001.94" gradientUnits="userSpaceOnUse">
<stop stop-color="#3300FF"/>
<stop offset="1" stop-color="#FF06F5"/>
</linearGradient>
<linearGradient id="paint16_linear_609_11327" x1="928.475" y1="819.214" x2="961.378" y2="1021.5" gradientUnits="userSpaceOnUse">
<stop stop-color="#3300FF"/>
<stop offset="1" stop-color="#FF06F5"/>
</linearGradient>
<linearGradient id="paint17_linear_609_11327" x1="933.418" y1="839.159" x2="961.44" y2="1041.25" gradientUnits="userSpaceOnUse">
<stop stop-color="#3300FF"/>
<stop offset="1" stop-color="#FF06F5"/>
</linearGradient>
<linearGradient id="paint18_linear_609_11327" x1="937.17" y1="859.238" x2="960.395" y2="1061.15" gradientUnits="userSpaceOnUse">
<stop stop-color="#3300FF"/>
<stop offset="1" stop-color="#FF06F5"/>
</linearGradient>
<linearGradient id="paint19_linear_609_11327" x1="939.732" y1="879.43" x2="958.229" y2="1081.19" gradientUnits="userSpaceOnUse">
<stop stop-color="#3300FF"/>
<stop offset="1" stop-color="#FF06F5"/>
</linearGradient>
<linearGradient id="paint20_linear_609_11327" x1="941.094" y1="899.702" x2="954.92" y2="1101.34" gradientUnits="userSpaceOnUse">
<stop stop-color="#3300FF"/>
<stop offset="1" stop-color="#FF06F5"/>
</linearGradient>
<linearGradient id="paint21_linear_609_11327" x1="941.255" y1="920.031" x2="950.449" y2="1121.58" gradientUnits="userSpaceOnUse">
<stop stop-color="#3300FF"/>
<stop offset="1" stop-color="#FF06F5"/>
</linearGradient>
<linearGradient id="paint22_linear_609_11327" x1="940.206" y1="940.387" x2="944.796" y2="1141.88" gradientUnits="userSpaceOnUse">
<stop stop-color="#3300FF"/>
<stop offset="1" stop-color="#FF06F5"/>
</linearGradient>
<linearGradient id="paint23_linear_609_11327" x1="937.956" y1="960.744" x2="937.956" y2="1162.22" gradientUnits="userSpaceOnUse">
<stop stop-color="#3300FF"/>
<stop offset="1" stop-color="#FF06F5"/>
</linearGradient>
<clipPath id="clip0_609_11327">
<rect width="1920" height="1573" fill="white"/>
</clipPath>
</defs>
</svg>
